<?xml version="1.0" encoding="utf-8"?>
<!-- Generator: Adobe Illustrator 24.0.1, SVG Export Plug-In . SVG Version: 6.00 Build 0)  -->
<svg version="1.1" xmlns="http://www.w3.org/2000/svg" xmlns:xlink="http://www.w3.org/1999/xlink" x="0px" y="0px"
	 viewBox="0 0 566.9 354.3" style="enable-background:new 0 0 566.9 354.3;" xml:space="preserve">
<style type="text/css">
	.st0{fill:#F1F2F2;}
	.st1{fill:#ED1C24;}
	.st2{fill:#FFFFFF;}
</style>
<g id="usos_incorrectos">
	<g>
		<rect x="-100.3" y="836.9" class="st0" width="255.8" height="382"/>
		<rect x="155.6" y="836.9" class="st1" width="255.8" height="382"/>
		<rect x="411.4" y="836.9" class="st0" width="255.8" height="382"/>
		<g>
			<path class="st2" d="M534.6,1023.1l-1.5-12.9c-0.1-1-0.2-1.4-0.6-1.8l-4.1,8.9L534.6,1023.1z"/>
			<path class="st2" d="M603.1,978.5l-0.2-4.1h-4.1c-6.2,0-11.9-3.2-15.2-8.5l-2.9-4.7l-3.9,3.9c-4.6,4.6-10.7,7.1-17.3,7.1
				c-6.5,0-12.7-2.5-17.3-7.2l-3.1-3.1l-3.1,3.1c-4.6,4.6-10.7,7.2-17.3,7.2c-6.5,0-12.7-2.5-17.3-7.1l-3.9-3.9L495,966
				c-3.3,5.3-8.9,8.5-15.2,8.5h-4.1l-0.2,4.1c-1.7,30.9,5.4,57.6,21.1,79.6c13.1,18.3,29.3,29.3,40.7,35.3l2,1.1l2-1.1
				c11.4-6,27.7-17,40.7-35.3C597.7,1036.2,604.8,1009.4,603.1,978.5z M508.1,981.5c5.1,0,8.8,3.1,10,10.4c0,0.8-0.3,1.6-2.3,1.3
				c-2-0.3-2.4-1-2.6-1.9c-0.4-2.4-1.3-4.8-3.2-4.8c-1.9,0-2.9,1.7-3,3.7c-0.3,10.3,1,13,3.6,13c2.2,0,2.9-1.5,2.7-4.5
				c-0.1-0.9,0-1.6,2-1.9c2.3-0.4,2.5,0.8,2.3,1.7c-1.9,6.2-5.1,8.1-9.6,8.1c-5.6,0-10.1-4.2-10.1-12.6
				C498,985.7,502.5,981.5,508.1,981.5z M494.8,979.3c1.3,0,2.3,1,2.3,2.3c0,1.3-1,2.3-2.3,2.3c-1.2,0-2.3-1-2.3-2.3
				C492.6,980.3,493.6,979.3,494.8,979.3z M539.3,1089.6c-19.9-10.5-57-37.7-59.6-95.9l84.2,78.5
				C555.1,1080.4,546.2,1085.9,539.3,1089.6z M529.4,1004.1c-0.4-1.5,0,0-0.4-1.5c-0.4-1.4,0.5-2.2,1.6-1.1l10.5,9.8
				c0.7,0.7,0.4,1.8-0.1,2c-0.5,0.2-0.6,0.3-0.5,0.7l2.4,20.3c0.2,2,1,3.6,1.5,4.7c0.5,1.1-0.2,2.1-0.7,1.6l0.1,0.1
				c-0.5-0.5-10.4-9.7-10.4-9.7c-0.4-0.4-0.1-1.4,0.8-1.4c1.2,0,1.3-0.2,1.2-0.9c-0.2-1.6-0.2-1.6-0.2-1.6l-7.7-7.2
				c-0.9,1.9-0.9,1.9-0.4,3c0.5,1.1-0.2,2.1-0.7,1.6c-0.5-0.5-4.3-4-4.3-4c-0.4-0.4-0.1-1.4,0.8-1.4c1.2,0,1.5,0,1.9-0.9
				c4.8-10.6,0,0,4.8-10.6C529.9,1006.3,529.6,1005.1,529.4,1004.1z M521,1008.3c-1.3,0-2.3-1-2.3-2.3c0-1.3,1-2.3,2.3-2.3
				c1.3,0,2.3,1,2.3,2.3C523.3,1007.2,522.3,1008.3,521,1008.3z M547.2,1032.5c0-1.3,1-2.3,2.3-2.3c1.3,0,2.3,1,2.3,2.3
				c0,1.3-1,2.3-2.3,2.3C548.2,1034.7,547.2,1033.7,547.2,1032.5z M565.6,1058.2c0.6,1.3-0.3,2.6-1.4,1.6l-8.9-8.3
				c-0.8-0.8-0.5-1.8,0.1-2c0.5-0.2,1.3-0.3,1.3-1.1v-16.6c0-1.5-0.8-3.2-1.4-4.5c-0.6-1.3,0.3-2.6,1.4-1.6l8.9,8.3
				c0.8,0.8,0.5,1.8-0.1,2c-0.5,0.2-1.3,0.3-1.3,1.1v16.6C564.2,1055.3,565,1056.9,565.6,1058.2z M571.6,1055.5
				c-1.3,0-2.3-1-2.3-2.3c0-1.3,1-2.3,2.3-2.3c1.2,0,2.3,1,2.3,2.3C573.9,1054.4,572.9,1055.5,571.6,1055.5z M587.1,1041.4
				l-69.4-64.8c7.8,0.4,15.7-2.4,21.7-8.4c11.2,11.2,29.4,11.2,40.6,0c3.9,6.3,10.9,10.5,18.9,10.5
				C600.2,1004.7,595.1,1025.2,587.1,1041.4z"/>
		</g>
		<g>
			<g>
				<path d="M351.3,978.9l-0.4-7.9H343c-4.9,0-9.3-2.5-11.8-6.6l-5.1-8.3H325l-6.8,6.8c-3.9,3.9-9,6-14.4,6c-5.5,0-10.6-2.1-14.5-6
					l-5.9-5.9l-5.9,5.9c-3.9,3.9-9,6-14.5,6c-5.5,0-10.6-2.1-14.4-6l-6.8-6.8h-1.1l-5.1,8.3c-2.5,4.1-6.9,6.6-11.8,6.6h-7.9
					l-0.4,7.9c-1.7,31.8,5.6,59.4,21.8,82.1c13.5,19,30.3,30.3,42.1,36.6l3.9,2.1l3.9-2.1c11.7-6.2,28.6-17.6,42.1-36.6
					C345.6,1038.3,353,1010.7,351.3,978.9z"/>
			</g>
			<g>
				<g>
					<path class="st2" d="M283.5,1095.1l-2-1.1c-11.4-6-27.7-17-40.7-35.3c-15.7-22-22.7-48.7-21.1-79.6l0.2-4.1h4.1
						c6.2,0,11.9-3.2,15.2-8.5l2.9-4.7l3.9,3.9c4.6,4.6,10.7,7.1,17.3,7.1c6.5,0,12.7-2.5,17.3-7.2l3.1-3.1l3.1,3.1
						c4.6,4.6,10.7,7.2,17.3,7.2c6.5,0,12.7-2.5,17.3-7.1l3.9-3.9l2.9,4.7c3.3,5.3,8.9,8.5,15.2,8.5h4.1l0.2,4.1
						c1.7,30.9-5.4,57.6-21.1,79.6c-13.1,18.3-29.3,29.3-40.7,35.3L283.5,1095.1z"/>
				</g>
				<g>
					<path class="st1" d="M343,979.4c-8,0-15-4.2-18.9-10.5c-11.2,11.2-29.4,11.2-40.6,0c-6,6-13.9,8.7-21.7,8.4l69.4,64.8
						C339.3,1025.8,344.4,1005.3,343,979.4z"/>
					<path class="st1" d="M283.5,1090.1c6.9-3.6,15.8-9.2,24.6-17.4l-84.2-78.5C226.4,1052.4,263.5,1079.6,283.5,1090.1z"/>
				</g>
				<path d="M288.5,1039.5c-0.5-1.1-1.2-2.7-1.5-4.7l-2.4-20.3c0-0.5,0-0.5,0.5-0.7c0.4-0.2,0.8-1.3,0.1-2l-10.5-9.8
					c-1.1-1.1-1.9-0.3-1.6,1.1c0.4,1.5,0,0,0.4,1.5c0.3,1.1,0.5,2.2,0.1,3.2c-4.8,10.6,0,0-4.8,10.6c-0.4,1-0.7,0.9-1.9,0.9
					c-0.9,0-1.2,1-0.8,1.4c0,0,3.8,3.5,4.3,4c0.5,0.5,1.2-0.5,0.7-1.6c-0.5-1.1-0.5-1.1,0.4-3l7.7,7.2c0,0,0,0,0.2,1.6
					c0.1,0.7,0,0.9-1.2,0.9c-0.9,0-1.2,1-0.8,1.4c0,0,9.9,9.2,10.4,9.7l-0.1-0.1C288.3,1041.6,289,1040.6,288.5,1039.5z
					 M272.6,1017.9l4.1-8.9c0.4,0.4,0.5,0.8,0.6,1.8l1.5,12.9L272.6,1017.9z"/>
				<g>
					<path d="M259.5,997.4c-2,0.3-2.1,1-2,1.9c0.2,3-0.5,4.5-2.7,4.5c-2.7,0-3.9-2.7-3.6-13c0.1-1.9,1-3.7,3-3.7
						c1.9,0,2.8,2.4,3.2,4.8c0.2,0.9,0.5,1.6,2.6,1.9c2,0.3,2.4-0.5,2.3-1.3c-1.2-7.2-4.9-10.4-10-10.4c-5.6,0-10.1,4.2-10.1,12.6
						c0,8.4,4.5,12.6,10.1,12.6c4.5,0,7.7-1.9,9.6-8.1C262,998.2,261.9,997.1,259.5,997.4z"/>
				</g>
				<path d="M308.4,1037.8c0-0.8,0.7-1,1.3-1.1c0.5-0.2,0.9-1.2,0.1-2l-8.9-8.3c-1.1-1.1-2,0.3-1.4,1.6c0.6,1.3,1.4,2.9,1.4,4.5
					v16.6c0,0.8-0.7,1-1.3,1.1c-0.5,0.2-0.9,1.2-0.1,2l8.9,8.3c1.1,1.1,2-0.3,1.4-1.6c-0.6-1.3-1.4-2.9-1.4-4.5V1037.8z"/>
				<path d="M241.3,982.2c0,1.3-1,2.3-2.3,2.3c-1.2,0-2.3-1-2.3-2.3c0-1.3,1-2.3,2.3-2.3C240.3,979.9,241.3,980.9,241.3,982.2z"/>
				<path d="M267.5,1006.6c0,1.3-1,2.3-2.3,2.3c-1.3,0-2.3-1-2.3-2.3c0-1.3,1-2.3,2.3-2.3C266.5,1004.3,267.5,1005.3,267.5,1006.6z"
					/>
				<path d="M295.9,1033.1c0,1.3-1,2.3-2.3,2.3c-1.3,0-2.3-1-2.3-2.3c0-1.3,1-2.3,2.3-2.3C294.9,1030.8,295.9,1031.8,295.9,1033.1z"
					/>
				<path d="M318.1,1053.8c0,1.3-1,2.3-2.3,2.3c-1.3,0-2.3-1-2.3-2.3c0-1.3,1-2.3,2.3-2.3C317.1,1051.5,318.1,1052.5,318.1,1053.8z"
					/>
			</g>
		</g>
		<g>
			<g>
				<g>
					<path class="st2" d="M27.6,1094.5l-2-1.1c-11.4-6-27.7-17-40.7-35.3c-15.7-22-22.7-48.7-21.1-79.6l0.2-4.1h4.1
						c6.2,0,11.9-3.2,15.2-8.5l2.9-4.7l3.9,3.9c4.6,4.6,10.7,7.1,17.3,7.1c6.5,0,12.7-2.5,17.3-7.2l3.1-3.1l3.1,3.1
						c4.6,4.6,10.7,7.2,17.3,7.2c6.5,0,12.7-2.5,17.3-7.1l3.9-3.9L72,966c3.3,5.3,8.9,8.5,15.2,8.5h4.1l0.2,4.1
						c1.7,30.9-5.4,57.6-21.1,79.6c-13.1,18.3-29.3,29.3-40.7,35.3L27.6,1094.5z"/>
				</g>
				<g>
					<path class="st1" d="M87.1,978.8c-8,0-15-4.2-18.9-10.5c-11.2,11.2-29.4,11.2-40.6,0c-6,6-13.9,8.8-21.7,8.4l69.4,64.8
						C83.5,1025.2,88.5,1004.7,87.1,978.8z"/>
					<path class="st1" d="M27.6,1089.6c6.9-3.6,15.8-9.2,24.6-17.4l-84.2-78.5C-29.4,1051.8,7.7,1079,27.6,1089.6z"/>
				</g>
				<g>
					<path d="M32.7,1038.9c-0.5-1.1-1.2-2.7-1.5-4.7l-2.4-20.3c0-0.5,0-0.5,0.5-0.7c0.4-0.2,0.8-1.3,0.1-2l-10.5-9.8
						c-1.1-1.1-1.9-0.3-1.6,1.1c0.4,1.5,0,0,0.4,1.5c0.3,1.1,0.5,2.2,0.1,3.2c-4.8,10.6,0,0-4.8,10.6c-0.4,1-0.7,0.9-1.9,0.9
						c-0.9,0-1.2,1-0.8,1.4c0,0,3.8,3.5,4.3,4c0.5,0.5,1.2-0.5,0.7-1.6c-0.5-1.1-0.5-1.1,0.4-3l7.7,7.2c0,0,0,0,0.2,1.6
						c0.1,0.7,0,0.9-1.2,0.9c-0.9,0-1.2,1-0.8,1.4c0,0,9.9,9.2,10.4,9.7l-0.1-0.1C32.4,1041,33.2,1040,32.7,1038.9z M16.7,1017.3
						l4.1-8.9c0.4,0.4,0.5,0.8,0.6,1.8l1.5,12.9L16.7,1017.3z"/>
					<g>
						<path d="M3.7,996.8c-2,0.3-2.1,1-2,1.9c0.2,3-0.5,4.5-2.7,4.5c-2.7,0-3.9-2.7-3.6-13c0.1-1.9,1-3.7,3-3.7
							c1.9,0,2.8,2.4,3.2,4.8c0.2,0.9,0.5,1.6,2.6,1.9c2,0.3,2.4-0.5,2.3-1.3c-1.2-7.2-4.9-10.4-10-10.4c-5.6,0-10.1,4.2-10.1,12.6
							c0,8.4,4.5,12.6,10.1,12.6c4.5,0,7.7-1.9,9.6-8.1C6.2,997.6,6,996.5,3.7,996.8z"/>
					</g>
					<path d="M52.6,1037.2c0-0.8,0.7-1,1.3-1.1c0.5-0.2,0.9-1.2,0.1-2l-8.9-8.3c-1.1-1.1-2,0.3-1.4,1.6c0.6,1.3,1.4,2.9,1.4,4.5
						v16.6c0,0.8-0.7,1-1.3,1.1c-0.5,0.2-0.9,1.2-0.1,2l8.9,8.3c1.1,1.1,2-0.3,1.4-1.6c-0.6-1.3-1.4-2.9-1.4-4.5V1037.2z"/>
					<path d="M-14.6,981.6c0,1.3-1,2.3-2.3,2.3c-1.2,0-2.3-1-2.3-2.3c0-1.3,1-2.3,2.3-2.3C-15.6,979.3-14.6,980.3-14.6,981.6z"/>
					<path d="M11.7,1006c0,1.3-1,2.3-2.3,2.3c-1.3,0-2.3-1-2.3-2.3c0-1.3,1-2.3,2.3-2.3C10.7,1003.7,11.7,1004.7,11.7,1006z"/>
					<path d="M40.1,1032.5c0,1.3-1,2.3-2.3,2.3c-1.3,0-2.3-1-2.3-2.3c0-1.3,1-2.3,2.3-2.3C39.1,1030.2,40.1,1031.2,40.1,1032.5z"/>
					<path d="M62.3,1053.2c0,1.3-1,2.3-2.3,2.3c-1.3,0-2.3-1-2.3-2.3c0-1.3,1-2.3,2.3-2.3C61.2,1050.9,62.3,1051.9,62.3,1053.2z"/>
				</g>
			</g>
		</g>
		<g>
			<rect x="279.5" y="901.9" transform="matrix(0.7071 -0.7071 0.7071 0.7071 -643.822 501.5099)" width="8" height="252.1"/>
			<rect x="157.4" y="1023.9" transform="matrix(0.7071 -0.7071 0.7071 0.7071 -643.8263 501.5175)" width="252.1" height="8"/>
		</g>
		<g>
			<rect x="23.6" y="901.9" transform="matrix(0.7071 -0.7071 0.7071 0.7071 -718.7501 320.6175)" width="8" height="252.1"/>
			<rect x="-98.4" y="1023.9" transform="matrix(0.7071 -0.7071 0.7071 0.7071 -718.7559 320.6237)" width="252.1" height="8"/>
		</g>
		<g>
			<rect x="535.3" y="901.9" transform="matrix(0.7071 -0.7071 0.7071 0.7071 -568.8938 682.4023)" width="8" height="252.1"/>
			<rect x="413.2" y="1023.9" transform="matrix(0.7071 -0.7071 0.7071 0.7071 -568.8936 682.4017)" width="252.1" height="8"/>
		</g>
	</g>
	<g>
		<path d="M251.3,1244.2v-8.1h1.1l2.6,4.1c0.6,0.9,1.1,1.8,1.5,2.6l0,0c-0.1-1.1-0.1-2.1-0.1-3.3v-3.4h1v8.1h-1.1l-2.6-4.1
			c-0.6-0.9-1.1-1.8-1.5-2.7l0,0c0.1,1,0.1,2,0.1,3.3v3.5H251.3z"/>
		<path d="M266.1,1240.1c0,2.8-1.7,4.3-3.8,4.3c-2.1,0-3.6-1.7-3.6-4.1c0-2.6,1.6-4.2,3.8-4.2C264.7,1236,266.1,1237.7,266.1,1240.1
			z M259.9,1240.2c0,1.7,0.9,3.3,2.6,3.3c1.7,0,2.6-1.5,2.6-3.4c0-1.6-0.8-3.3-2.6-3.3C260.7,1236.9,259.9,1238.5,259.9,1240.2z"/>
		<path d="M271.1,1236.1v4.8c0,1.8,0.8,2.6,1.9,2.6c1.2,0,2-0.8,2-2.6v-4.8h1.1v4.7c0,2.5-1.3,3.5-3.1,3.5c-1.7,0-2.9-0.9-2.9-3.5
			v-4.8H271.1z"/>
		<path d="M277.7,1242.9c0.5,0.3,1.2,0.5,1.9,0.5c1.1,0,1.7-0.6,1.7-1.4c0-0.8-0.4-1.2-1.5-1.6c-1.3-0.5-2.1-1.2-2.1-2.3
			c0-1.3,1-2.2,2.6-2.2c0.8,0,1.4,0.2,1.8,0.4l-0.3,0.9c-0.3-0.1-0.8-0.4-1.5-0.4c-1.1,0-1.5,0.7-1.5,1.2c0,0.8,0.5,1.1,1.6,1.6
			c1.4,0.5,2.1,1.2,2.1,2.4c0,1.2-0.9,2.3-2.8,2.3c-0.8,0-1.6-0.2-2.1-0.5L277.7,1242.9z"/>
		<path d="M285,1241.7l-0.8,2.5h-1.1l2.7-8.1h1.3l2.8,8.1h-1.1l-0.9-2.5H285z M287.7,1240.9l-0.8-2.3c-0.2-0.5-0.3-1-0.4-1.5h0
			c-0.1,0.5-0.3,1-0.4,1.5l-0.8,2.3H287.7z"/>
		<path d="M291.1,1236.2c0.5-0.1,1.3-0.2,2-0.2c1.1,0,1.8,0.2,2.3,0.7c0.4,0.4,0.6,0.9,0.6,1.5c0,1.1-0.7,1.8-1.5,2.1v0
			c0.6,0.2,1,0.8,1.2,1.6c0.3,1.1,0.5,1.9,0.6,2.2h-1.1c-0.1-0.2-0.3-0.9-0.5-1.9c-0.2-1.1-0.7-1.5-1.6-1.6h-1v3.5h-1V1236.2z
			 M292.1,1239.9h1.1c1.1,0,1.8-0.6,1.8-1.5c0-1-0.8-1.5-1.9-1.5c-0.5,0-0.9,0-1,0.1V1239.9z"/>
		<path d="M301.4,1241.7l-0.8,2.5h-1.1l2.7-8.1h1.3l2.8,8.1h-1.1l-0.9-2.5H301.4z M304,1240.9l-0.8-2.3c-0.2-0.5-0.3-1-0.4-1.5h0
			c-0.1,0.5-0.3,1-0.4,1.5l-0.8,2.3H304z"/>
		<path d="M307.3,1242.9c0.5,0.3,1.2,0.5,1.9,0.5c1.1,0,1.7-0.6,1.7-1.4c0-0.8-0.4-1.2-1.5-1.6c-1.3-0.5-2.1-1.2-2.1-2.3
			c0-1.3,1-2.2,2.6-2.2c0.8,0,1.4,0.2,1.8,0.4l-0.3,0.9c-0.3-0.1-0.8-0.4-1.5-0.4c-1.1,0-1.5,0.7-1.5,1.2c0,0.8,0.5,1.1,1.6,1.6
			c1.4,0.5,2.1,1.2,2.1,2.4c0,1.2-0.9,2.3-2.8,2.3c-0.8,0-1.6-0.2-2.1-0.5L307.3,1242.9z"/>
		<path d="M315.6,1234.3l-1.5,1.4h-0.9l1.1-1.4H315.6z M314.4,1236.1v8.1h-1v-8.1H314.4z"/>
	</g>
	<g>
		<path d="M-4.5,1244.2v-8.1h1.1l2.6,4.1c0.6,0.9,1.1,1.8,1.5,2.6l0,0c-0.1-1.1-0.1-2.1-0.1-3.3v-3.4h1v8.1H0.5l-2.6-4.1
			c-0.6-0.9-1.1-1.8-1.5-2.7l0,0c0.1,1,0.1,2,0.1,3.3v3.5H-4.5z"/>
		<path d="M10.3,1240.1c0,2.8-1.7,4.3-3.8,4.3c-2.1,0-3.6-1.7-3.6-4.1c0-2.6,1.6-4.2,3.8-4.2C8.9,1236,10.3,1237.7,10.3,1240.1z
			 M4,1240.2c0,1.7,0.9,3.3,2.6,3.3c1.7,0,2.6-1.5,2.6-3.4c0-1.6-0.8-3.3-2.6-3.3C4.9,1236.9,4,1238.5,4,1240.2z"/>
		<path d="M15.3,1236.1v4.8c0,1.8,0.8,2.6,1.9,2.6c1.2,0,2-0.8,2-2.6v-4.8h1.1v4.7c0,2.5-1.3,3.5-3.1,3.5c-1.7,0-2.9-0.9-2.9-3.5
			v-4.8H15.3z"/>
		<path d="M21.8,1242.9c0.5,0.3,1.2,0.5,1.9,0.5c1.1,0,1.7-0.6,1.7-1.4c0-0.8-0.4-1.2-1.5-1.6c-1.3-0.5-2.1-1.2-2.1-2.3
			c0-1.3,1-2.2,2.6-2.2c0.8,0,1.4,0.2,1.8,0.4l-0.3,0.9c-0.3-0.1-0.8-0.4-1.5-0.4c-1.1,0-1.5,0.7-1.5,1.2c0,0.8,0.5,1.1,1.6,1.6
			c1.4,0.5,2.1,1.2,2.1,2.4c0,1.2-0.9,2.3-2.8,2.3c-0.8,0-1.6-0.2-2.1-0.5L21.8,1242.9z"/>
		<path d="M29.2,1241.7l-0.8,2.5h-1.1l2.7-8.1h1.3l2.8,8.1h-1.1l-0.9-2.5H29.2z M31.9,1240.9l-0.8-2.3c-0.2-0.5-0.3-1-0.4-1.5h0
			c-0.1,0.5-0.3,1-0.4,1.5l-0.8,2.3H31.9z"/>
		<path d="M35.2,1236.2c0.5-0.1,1.3-0.2,2-0.2c1.1,0,1.8,0.2,2.3,0.7c0.4,0.4,0.6,0.9,0.6,1.5c0,1.1-0.7,1.8-1.5,2.1v0
			c0.6,0.2,1,0.8,1.2,1.6c0.3,1.1,0.5,1.9,0.6,2.2h-1.1c-0.1-0.2-0.3-0.9-0.5-1.9c-0.2-1.1-0.7-1.5-1.6-1.6h-1v3.5h-1V1236.2z
			 M36.3,1239.9h1.1c1.1,0,1.8-0.6,1.8-1.5c0-1-0.8-1.5-1.9-1.5c-0.5,0-0.9,0-1,0.1V1239.9z"/>
		<path d="M45.5,1241.7l-0.8,2.5h-1.1l2.7-8.1h1.3l2.8,8.1h-1.1l-0.9-2.5H45.5z M48.2,1240.9l-0.8-2.3c-0.2-0.5-0.3-1-0.4-1.5h0
			c-0.1,0.5-0.3,1-0.4,1.5l-0.8,2.3H48.2z"/>
		<path d="M51.4,1242.9c0.5,0.3,1.2,0.5,1.9,0.5c1.1,0,1.7-0.6,1.7-1.4c0-0.8-0.4-1.2-1.5-1.6c-1.3-0.5-2.1-1.2-2.1-2.3
			c0-1.3,1-2.2,2.6-2.2c0.8,0,1.4,0.2,1.8,0.4l-0.3,0.9c-0.3-0.1-0.8-0.4-1.5-0.4c-1.1,0-1.5,0.7-1.5,1.2c0,0.8,0.5,1.1,1.6,1.6
			c1.4,0.5,2.1,1.2,2.1,2.4c0,1.2-0.9,2.3-2.8,2.3c-0.8,0-1.6-0.2-2.1-0.5L51.4,1242.9z"/>
		<path d="M59.8,1234.3l-1.5,1.4h-0.9l1.1-1.4H59.8z M58.5,1236.1v8.1h-1v-8.1H58.5z"/>
	</g>
	<g>
		<path d="M507.2,1244.2v-8.1h1.1l2.6,4.1c0.6,0.9,1.1,1.8,1.5,2.6l0,0c-0.1-1.1-0.1-2.1-0.1-3.3v-3.4h1v8.1h-1.1l-2.6-4.1
			c-0.6-0.9-1.1-1.8-1.5-2.7l0,0c0.1,1,0.1,2,0.1,3.3v3.5H507.2z"/>
		<path d="M522,1240.1c0,2.8-1.7,4.3-3.8,4.3c-2.1,0-3.6-1.7-3.6-4.1c0-2.6,1.6-4.2,3.8-4.2C520.5,1236,522,1237.7,522,1240.1z
			 M515.7,1240.2c0,1.7,0.9,3.3,2.6,3.3c1.7,0,2.6-1.5,2.6-3.4c0-1.6-0.8-3.3-2.6-3.3C516.5,1236.9,515.7,1238.5,515.7,1240.2z"/>
		<path d="M526.9,1236.1v4.8c0,1.8,0.8,2.6,1.9,2.6c1.2,0,2-0.8,2-2.6v-4.8h1.1v4.7c0,2.5-1.3,3.5-3.1,3.5c-1.7,0-2.9-0.9-2.9-3.5
			v-4.8H526.9z"/>
		<path d="M533.5,1242.9c0.5,0.3,1.2,0.5,1.9,0.5c1.1,0,1.7-0.6,1.7-1.4c0-0.8-0.4-1.2-1.5-1.6c-1.3-0.5-2.1-1.2-2.1-2.3
			c0-1.3,1-2.2,2.6-2.2c0.8,0,1.4,0.2,1.8,0.4l-0.3,0.9c-0.3-0.1-0.8-0.4-1.5-0.4c-1.1,0-1.5,0.7-1.5,1.2c0,0.8,0.5,1.1,1.6,1.6
			c1.4,0.5,2.1,1.2,2.1,2.4c0,1.2-0.9,2.3-2.8,2.3c-0.8,0-1.6-0.2-2.1-0.5L533.5,1242.9z"/>
		<path d="M540.8,1241.7l-0.8,2.5h-1.1l2.7-8.1h1.3l2.8,8.1h-1.1l-0.9-2.5H540.8z M543.5,1240.9l-0.8-2.3c-0.2-0.5-0.3-1-0.4-1.5h0
			c-0.1,0.5-0.3,1-0.4,1.5l-0.8,2.3H543.5z"/>
		<path d="M546.9,1236.2c0.5-0.1,1.3-0.2,2-0.2c1.1,0,1.8,0.2,2.3,0.7c0.4,0.4,0.6,0.9,0.6,1.5c0,1.1-0.7,1.8-1.5,2.1v0
			c0.6,0.2,1,0.8,1.2,1.6c0.3,1.1,0.5,1.9,0.6,2.2h-1.1c-0.1-0.2-0.3-0.9-0.5-1.9c-0.2-1.1-0.7-1.5-1.6-1.6h-1v3.5h-1V1236.2z
			 M547.9,1239.9h1.1c1.1,0,1.8-0.6,1.8-1.5c0-1-0.8-1.5-1.9-1.5c-0.5,0-0.9,0-1,0.1V1239.9z"/>
		<path d="M557.2,1241.7l-0.8,2.5h-1.1l2.7-8.1h1.3l2.8,8.1h-1.1l-0.9-2.5H557.2z M559.8,1240.9l-0.8-2.3c-0.2-0.5-0.3-1-0.4-1.5h0
			c-0.1,0.5-0.3,1-0.4,1.5l-0.8,2.3H559.8z"/>
		<path d="M563.1,1242.9c0.5,0.3,1.2,0.5,1.9,0.5c1.1,0,1.7-0.6,1.7-1.4c0-0.8-0.4-1.2-1.5-1.6c-1.3-0.5-2.1-1.2-2.1-2.3
			c0-1.3,1-2.2,2.6-2.2c0.8,0,1.4,0.2,1.8,0.4l-0.3,0.9c-0.3-0.1-0.8-0.4-1.5-0.4c-1.1,0-1.5,0.7-1.5,1.2c0,0.8,0.5,1.1,1.6,1.6
			c1.4,0.5,2.1,1.2,2.1,2.4c0,1.2-0.9,2.3-2.8,2.3c-0.8,0-1.6-0.2-2.1-0.5L563.1,1242.9z"/>
		<path d="M571.4,1234.3l-1.5,1.4H569l1.1-1.4H571.4z M570.2,1236.1v8.1h-1v-8.1H570.2z"/>
	</g>
</g>
<g id="otros_usos">
	<g>
		<rect x="-100.3" y="389.5" class="st1" width="255.8" height="382"/>
		<rect x="155.6" y="389.5" class="st0" width="255.8" height="382"/>
		<rect x="411.4" y="389.5" class="st1" width="255.8" height="382"/>
		<g>
			<path d="M-48.8,794.4c0.4,0.2,0.9,0.4,1.4,0.4c0.8,0,1.3-0.4,1.3-1c0-0.6-0.3-0.9-1.1-1.2c-1-0.4-1.6-0.9-1.6-1.7
				c0-0.9,0.8-1.6,2-1.6c0.6,0,1.1,0.1,1.3,0.3l-0.2,0.6c-0.2-0.1-0.6-0.3-1.2-0.3c-0.8,0-1.1,0.5-1.1,0.9c0,0.6,0.4,0.8,1.2,1.2
				c1,0.4,1.5,0.9,1.5,1.8c0,0.9-0.7,1.7-2.1,1.7c-0.6,0-1.2-0.2-1.5-0.4L-48.8,794.4z"/>
			<path d="M-39.1,792.3c0,2.1-1.3,3.2-2.8,3.2c-1.6,0-2.7-1.2-2.7-3.1c0-1.9,1.2-3.2,2.8-3.2C-40.2,789.2-39.1,790.5-39.1,792.3z
				 M-43.8,792.4c0,1.3,0.7,2.5,1.9,2.5c1.2,0,1.9-1.1,1.9-2.5c0-1.2-0.6-2.5-1.9-2.5C-43.2,789.8-43.8,791-43.8,792.4z"/>
			<path d="M-38.1,789.4c0.3-0.1,0.9-0.1,1.4-0.1c0.8,0,1.3,0.1,1.7,0.4c0.3,0.2,0.5,0.6,0.5,1.1c0,0.6-0.4,1.1-1,1.3v0
				c0.6,0.1,1.3,0.6,1.3,1.5c0,0.5-0.2,0.9-0.5,1.2c-0.4,0.4-1.1,0.6-2.1,0.6c-0.5,0-1,0-1.2-0.1V789.4z M-37.3,791.9h0.7
				c0.8,0,1.3-0.4,1.3-1c0-0.7-0.5-1-1.3-1c-0.4,0-0.6,0-0.7,0.1V791.9z M-37.3,794.8c0.2,0,0.4,0,0.7,0c0.8,0,1.6-0.3,1.6-1.2
				c0-0.8-0.7-1.2-1.6-1.2h-0.6V794.8z"/>
			<path d="M-33.2,789.4c0.4-0.1,1-0.1,1.5-0.1c0.8,0,1.4,0.2,1.8,0.5c0.3,0.3,0.5,0.7,0.5,1.2c0,0.8-0.5,1.3-1.1,1.5v0
				c0.5,0.2,0.7,0.6,0.9,1.2c0.2,0.8,0.3,1.4,0.5,1.7h-0.8c-0.1-0.2-0.2-0.7-0.4-1.4c-0.2-0.8-0.5-1.2-1.2-1.2h-0.7v2.6h-0.8V789.4z
				 M-32.4,792.2h0.8c0.8,0,1.4-0.5,1.4-1.2c0-0.8-0.6-1.1-1.4-1.1c-0.4,0-0.6,0-0.8,0.1V792.2z"/>
			<path d="M-25.2,792.5h-2.4v2.2h2.6v0.7h-3.4v-6.1h3.3v0.7h-2.5v1.9h2.4V792.5z"/>
			<path d="M-22,789.3h3.3v0.7h-2.5v2h2.3v0.6h-2.3v2.7H-22V789.3z"/>
			<path d="M-12.5,792.3c0,2.1-1.3,3.2-2.8,3.2c-1.6,0-2.7-1.2-2.7-3.1c0-1.9,1.2-3.2,2.8-3.2C-13.5,789.2-12.5,790.5-12.5,792.3z
				 M-17.2,792.4c0,1.3,0.7,2.5,1.9,2.5c1.2,0,1.9-1.1,1.9-2.5c0-1.2-0.6-2.5-1.9-2.5C-16.5,789.8-17.2,791-17.2,792.4z"/>
			<path d="M-11.4,795.4v-6.1h0.9l1.9,3.1c0.4,0.7,0.8,1.4,1.1,2l0,0c-0.1-0.8-0.1-1.5-0.1-2.5v-2.5h0.7v6.1h-0.8l-1.9-3.1
				c-0.4-0.7-0.8-1.4-1.1-2l0,0c0,0.8,0.1,1.5,0.1,2.5v2.6H-11.4z"/>
			<path d="M-5.5,789.4c0.5-0.1,1-0.1,1.7-0.1c1.1,0,1.9,0.3,2.5,0.8c0.5,0.5,0.9,1.2,0.9,2.2c0,1-0.3,1.8-0.9,2.4
				c-0.6,0.6-1.5,0.9-2.7,0.9c-0.6,0-1,0-1.4-0.1V789.4z M-4.7,794.8c0.2,0,0.5,0,0.8,0c1.7,0,2.6-0.9,2.6-2.6
				c0-1.4-0.8-2.3-2.5-2.3c-0.4,0-0.7,0-0.9,0.1V794.8z"/>
			<path d="M5.7,792.3c0,2.1-1.3,3.2-2.8,3.2c-1.6,0-2.7-1.2-2.7-3.1c0-1.9,1.2-3.2,2.8-3.2C4.6,789.2,5.7,790.5,5.7,792.3z
				 M0.9,792.4c0,1.3,0.7,2.5,1.9,2.5c1.2,0,1.9-1.1,1.9-2.5c0-1.2-0.6-2.5-1.9-2.5C1.6,789.8,0.9,791,0.9,792.4z"/>
			<path d="M8.6,789.4c0.4-0.1,1-0.1,1.5-0.1c0.8,0,1.4,0.2,1.8,0.5c0.3,0.3,0.5,0.7,0.5,1.2c0,0.8-0.5,1.3-1.1,1.5v0
				c0.5,0.2,0.7,0.6,0.9,1.2c0.2,0.8,0.3,1.4,0.5,1.7h-0.8c-0.1-0.2-0.2-0.7-0.4-1.4c-0.2-0.8-0.5-1.2-1.2-1.2H9.4v2.6H8.6V789.4z
				 M9.4,792.2h0.8c0.8,0,1.4-0.5,1.4-1.2c0-0.8-0.6-1.1-1.4-1.1c-0.4,0-0.6,0-0.8,0.1V792.2z"/>
			<path d="M18.6,792.3c0,2.1-1.3,3.2-2.8,3.2c-1.6,0-2.7-1.2-2.7-3.1c0-1.9,1.2-3.2,2.8-3.2C17.6,789.2,18.6,790.5,18.6,792.3z
				 M13.9,792.4c0,1.3,0.7,2.5,1.9,2.5c1.2,0,1.9-1.1,1.9-2.5c0-1.2-0.6-2.5-1.9-2.5C14.6,789.8,13.9,791,13.9,792.4z"/>
			<path d="M20.9,789.3h0.8v4.1c0,1.6-0.8,2.1-1.8,2.1c-0.3,0-0.6-0.1-0.8-0.1l0.1-0.6c0.2,0.1,0.4,0.1,0.7,0.1
				c0.7,0,1.1-0.3,1.1-1.5V789.3z"/>
			<path d="M28.2,792.3c0,2.1-1.3,3.2-2.8,3.2c-1.6,0-2.7-1.2-2.7-3.1c0-1.9,1.2-3.2,2.8-3.2C27.1,789.2,28.2,790.5,28.2,792.3z
				 M23.5,792.4c0,1.3,0.7,2.5,1.9,2.5c1.2,0,1.9-1.1,1.9-2.5c0-1.2-0.6-2.5-1.9-2.5C24.1,789.8,23.5,791,23.5,792.4z"/>
			<path d="M31.9,789.3v3.6c0,1.4,0.6,1.9,1.4,1.9c0.9,0,1.5-0.6,1.5-1.9v-3.6h0.8v3.5c0,1.9-1,2.6-2.3,2.6c-1.2,0-2.2-0.7-2.2-2.6
				v-3.6H31.9z"/>
			<path d="M36.8,794.4c0.4,0.2,0.9,0.4,1.4,0.4c0.8,0,1.3-0.4,1.3-1c0-0.6-0.3-0.9-1.1-1.2c-1-0.4-1.6-0.9-1.6-1.7
				c0-0.9,0.8-1.6,2-1.6c0.6,0,1.1,0.1,1.3,0.3l-0.2,0.6c-0.2-0.1-0.6-0.3-1.2-0.3c-0.8,0-1.1,0.5-1.1,0.9c0,0.6,0.4,0.8,1.2,1.2
				c1,0.4,1.5,0.9,1.5,1.8c0,0.9-0.7,1.7-2.1,1.7c-0.6,0-1.2-0.2-1.5-0.4L36.8,794.4z"/>
			<path d="M42.3,793.5l-0.6,1.9h-0.8l2.1-6.1h0.9l2.1,6.1h-0.8l-0.6-1.9H42.3z M44.3,792.9l-0.6-1.7c-0.1-0.4-0.2-0.8-0.3-1.1h0
				c-0.1,0.4-0.2,0.7-0.3,1.1l-0.6,1.8H44.3z"/>
			<path d="M46.9,789.4c0.4-0.1,1-0.1,1.5-0.1c0.8,0,1.4,0.2,1.8,0.5c0.3,0.3,0.5,0.7,0.5,1.2c0,0.8-0.5,1.3-1.1,1.5v0
				c0.5,0.2,0.7,0.6,0.9,1.2c0.2,0.8,0.3,1.4,0.5,1.7H50c-0.1-0.2-0.2-0.7-0.4-1.4c-0.2-0.8-0.5-1.2-1.2-1.2h-0.7v2.6h-0.8V789.4z
				 M47.6,792.2h0.8c0.8,0,1.4-0.5,1.4-1.2c0-0.8-0.6-1.1-1.4-1.1c-0.4,0-0.6,0-0.8,0.1V792.2z"/>
			<path d="M56.7,792.5h-2.4v2.2H57v0.7h-3.4v-6.1h3.3v0.7h-2.5v1.9h2.4V792.5z"/>
			<path d="M57.9,794.4c0.4,0.2,0.9,0.4,1.4,0.4c0.8,0,1.3-0.4,1.3-1c0-0.6-0.3-0.9-1.1-1.2c-1-0.4-1.6-0.9-1.6-1.7
				c0-0.9,0.8-1.6,2-1.6c0.6,0,1.1,0.1,1.3,0.3l-0.2,0.6c-0.2-0.1-0.6-0.3-1.2-0.3c-0.8,0-1.1,0.5-1.1,0.9c0,0.6,0.4,0.8,1.2,1.2
				c1,0.4,1.5,0.9,1.5,1.8c0,0.9-0.7,1.7-2.1,1.7c-0.6,0-1.2-0.2-1.5-0.4L57.9,794.4z"/>
			<path d="M63.6,790h-1.8v-0.7h4.5v0.7h-1.9v5.4h-0.8V790z"/>
			<path d="M70.1,792.5h-2.4v2.2h2.6v0.7h-3.4v-6.1h3.3v0.7h-2.5v1.9h2.4V792.5z"/>
			<path d="M76.4,792.5h-2.4v2.2h2.6v0.7h-3.4v-6.1h3.3v0.7h-2.5v1.9h2.4V792.5z"/>
			<path d="M77.6,794.4c0.4,0.2,0.9,0.4,1.4,0.4c0.8,0,1.3-0.4,1.3-1c0-0.6-0.3-0.9-1.1-1.2c-1-0.4-1.6-0.9-1.6-1.7
				c0-0.9,0.8-1.6,2-1.6c0.6,0,1.1,0.1,1.3,0.3l-0.2,0.6c-0.2-0.1-0.6-0.3-1.2-0.3c-0.8,0-1.1,0.5-1.1,0.9c0,0.6,0.4,0.8,1.2,1.2
				c1,0.4,1.5,0.9,1.5,1.8c0,0.9-0.7,1.7-2.1,1.7c-0.6,0-1.2-0.2-1.5-0.4L77.6,794.4z"/>
			<path d="M86.4,795.2c-0.3,0.1-0.9,0.3-1.6,0.3c-1.7,0-3-1.1-3-3.1c0-1.9,1.3-3.2,3.2-3.2c0.8,0,1.2,0.2,1.4,0.3l-0.2,0.6
				c-0.3-0.1-0.7-0.3-1.2-0.3c-1.4,0-2.4,0.9-2.4,2.5c0,1.5,0.9,2.4,2.3,2.4c0.5,0,1-0.1,1.3-0.3L86.4,795.2z"/>
			<path d="M88.1,789.3v3.6c0,1.4,0.6,1.9,1.4,1.9c0.9,0,1.5-0.6,1.5-1.9v-3.6h0.8v3.5c0,1.9-1,2.6-2.3,2.6c-1.2,0-2.2-0.7-2.2-2.6
				v-3.6H88.1z"/>
			<path d="M93.2,789.4c0.5-0.1,1-0.1,1.7-0.1c1.1,0,1.9,0.3,2.5,0.8c0.5,0.5,0.9,1.2,0.9,2.2c0,1-0.3,1.8-0.9,2.4
				c-0.6,0.6-1.5,0.9-2.7,0.9c-0.6,0-1,0-1.4-0.1V789.4z M94,794.8c0.2,0,0.5,0,0.8,0c1.7,0,2.6-0.9,2.6-2.6c0-1.4-0.8-2.3-2.5-2.3
				c-0.4,0-0.7,0-0.9,0.1V794.8z"/>
			<path d="M104.4,792.3c0,2.1-1.3,3.2-2.8,3.2c-1.6,0-2.7-1.2-2.7-3.1c0-1.9,1.2-3.2,2.8-3.2C103.3,789.2,104.4,790.5,104.4,792.3z
				 M99.7,792.4c0,1.3,0.7,2.5,1.9,2.5c1.2,0,1.9-1.1,1.9-2.5c0-1.2-0.6-2.5-1.9-2.5C100.3,789.8,99.7,791,99.7,792.4z"/>
		</g>
		<g>
			<path d="M201.4,794.4c0.4,0.2,0.9,0.4,1.4,0.4c0.8,0,1.3-0.4,1.3-1c0-0.6-0.3-0.9-1.1-1.2c-1-0.4-1.6-0.9-1.6-1.7
				c0-0.9,0.8-1.6,2-1.6c0.6,0,1.1,0.1,1.3,0.3l-0.2,0.6c-0.2-0.1-0.6-0.3-1.2-0.3c-0.8,0-1.1,0.5-1.1,0.9c0,0.6,0.4,0.8,1.2,1.2
				c1,0.4,1.5,0.9,1.5,1.8c0,0.9-0.7,1.7-2.1,1.7c-0.6,0-1.2-0.2-1.5-0.4L201.4,794.4z"/>
			<path d="M211.1,792.3c0,2.1-1.3,3.2-2.8,3.2c-1.6,0-2.7-1.2-2.7-3.1c0-1.9,1.2-3.2,2.8-3.2C210.1,789.2,211.1,790.5,211.1,792.3z
				 M206.4,792.4c0,1.3,0.7,2.5,1.9,2.5c1.2,0,1.9-1.1,1.9-2.5c0-1.2-0.6-2.5-1.9-2.5C207.1,789.8,206.4,791,206.4,792.4z"/>
			<path d="M212.1,789.4c0.3-0.1,0.9-0.1,1.4-0.1c0.8,0,1.3,0.1,1.7,0.4c0.3,0.2,0.5,0.6,0.5,1.1c0,0.6-0.4,1.1-1,1.3v0
				c0.6,0.1,1.3,0.6,1.3,1.5c0,0.5-0.2,0.9-0.5,1.2c-0.4,0.4-1.1,0.6-2.1,0.6c-0.5,0-1,0-1.2-0.1V789.4z M212.9,791.9h0.7
				c0.8,0,1.3-0.4,1.3-1c0-0.7-0.5-1-1.3-1c-0.4,0-0.6,0-0.7,0.1V791.9z M212.9,794.8c0.2,0,0.4,0,0.7,0c0.8,0,1.6-0.3,1.6-1.2
				c0-0.8-0.7-1.2-1.6-1.2h-0.6V794.8z"/>
			<path d="M217,789.4c0.4-0.1,1-0.1,1.5-0.1c0.8,0,1.4,0.2,1.8,0.5c0.3,0.3,0.5,0.7,0.5,1.2c0,0.8-0.5,1.3-1.1,1.5v0
				c0.5,0.2,0.7,0.6,0.9,1.2c0.2,0.8,0.3,1.4,0.5,1.7h-0.8c-0.1-0.2-0.2-0.7-0.4-1.4c-0.2-0.8-0.5-1.2-1.2-1.2h-0.7v2.6H217V789.4z
				 M217.8,792.2h0.8c0.8,0,1.4-0.5,1.4-1.2c0-0.8-0.6-1.1-1.4-1.1c-0.4,0-0.6,0-0.8,0.1V792.2z"/>
			<path d="M225,792.5h-2.4v2.2h2.6v0.7h-3.4v-6.1h3.3v0.7h-2.5v1.9h2.4V792.5z"/>
			<path d="M228.2,789.3h3.3v0.7H229v2h2.3v0.6H229v2.7h-0.8V789.3z"/>
			<path d="M237.8,792.3c0,2.1-1.3,3.2-2.8,3.2c-1.6,0-2.7-1.2-2.7-3.1c0-1.9,1.2-3.2,2.8-3.2C236.7,789.2,237.8,790.5,237.8,792.3z
				 M233.1,792.4c0,1.3,0.7,2.5,1.9,2.5c1.2,0,1.9-1.1,1.9-2.5c0-1.2-0.6-2.5-1.9-2.5C233.7,789.8,233.1,791,233.1,792.4z"/>
			<path d="M238.8,795.4v-6.1h0.9l1.9,3.1c0.5,0.7,0.8,1.4,1.1,2l0,0c-0.1-0.8-0.1-1.5-0.1-2.5v-2.5h0.7v6.1h-0.8l-1.9-3.1
				c-0.4-0.7-0.8-1.4-1.1-2l0,0c0,0.8,0.1,1.5,0.1,2.5v2.6H238.8z"/>
			<path d="M244.7,789.4c0.5-0.1,1-0.1,1.7-0.1c1.1,0,1.9,0.3,2.5,0.8c0.5,0.5,0.9,1.2,0.9,2.2c0,1-0.3,1.8-0.9,2.4
				c-0.6,0.6-1.5,0.9-2.7,0.9c-0.6,0-1,0-1.4-0.1V789.4z M245.5,794.8c0.2,0,0.5,0,0.8,0c1.7,0,2.6-0.9,2.6-2.6
				c0-1.4-0.8-2.3-2.5-2.3c-0.4,0-0.7,0-0.9,0.1V794.8z"/>
			<path d="M255.9,792.3c0,2.1-1.3,3.2-2.8,3.2c-1.6,0-2.7-1.2-2.7-3.1c0-1.9,1.2-3.2,2.8-3.2C254.8,789.2,255.9,790.5,255.9,792.3z
				 M251.2,792.4c0,1.3,0.7,2.5,1.9,2.5c1.2,0,1.9-1.1,1.9-2.5c0-1.2-0.6-2.5-1.9-2.5C251.8,789.8,251.2,791,251.2,792.4z"/>
			<path d="M258.8,789.4c0.3-0.1,0.9-0.1,1.4-0.1c0.8,0,1.3,0.1,1.7,0.4c0.3,0.2,0.5,0.6,0.5,1.1c0,0.6-0.4,1.1-1,1.3v0
				c0.6,0.1,1.3,0.6,1.3,1.5c0,0.5-0.2,0.9-0.5,1.2c-0.4,0.4-1.1,0.6-2.1,0.6c-0.5,0-1,0-1.2-0.1V789.4z M259.6,791.9h0.7
				c0.8,0,1.3-0.4,1.3-1c0-0.7-0.5-1-1.3-1c-0.4,0-0.6,0-0.7,0.1V791.9z M259.6,794.8c0.2,0,0.4,0,0.7,0c0.8,0,1.6-0.3,1.6-1.2
				c0-0.8-0.7-1.2-1.6-1.2h-0.6V794.8z"/>
			<path d="M263.7,789.3h0.8v5.4h2.6v0.7h-3.4V789.3z"/>
			<path d="M268.9,793.5l-0.6,1.9h-0.8l2.1-6.1h0.9l2.1,6.1h-0.8l-0.6-1.9H268.9z M270.9,792.9l-0.6-1.7c-0.1-0.4-0.2-0.8-0.3-1.1h0
				c-0.1,0.4-0.2,0.7-0.3,1.1l-0.6,1.8H270.9z"/>
			<path d="M273.4,795.4v-6.1h0.9l1.9,3.1c0.4,0.7,0.8,1.4,1.1,2l0,0c-0.1-0.8-0.1-1.5-0.1-2.5v-2.5h0.7v6.1h-0.8l-1.9-3.1
				c-0.4-0.7-0.8-1.4-1.1-2l0,0c0,0.8,0.1,1.5,0.1,2.5v2.6H273.4z"/>
			<path d="M283.6,795.2c-0.3,0.1-0.9,0.3-1.6,0.3c-1.7,0-3-1.1-3-3.1c0-1.9,1.3-3.2,3.2-3.2c0.8,0,1.2,0.2,1.4,0.3l-0.2,0.6
				c-0.3-0.1-0.7-0.3-1.2-0.3c-1.4,0-2.4,0.9-2.4,2.5c0,1.5,0.9,2.4,2.3,2.4c0.5,0,1-0.1,1.3-0.3L283.6,795.2z"/>
			<path d="M289.6,792.3c0,2.1-1.3,3.2-2.8,3.2c-1.6,0-2.7-1.2-2.7-3.1c0-1.9,1.2-3.2,2.8-3.2C288.5,789.2,289.6,790.5,289.6,792.3z
				 M284.9,792.4c0,1.3,0.7,2.5,1.9,2.5c1.2,0,1.9-1.1,1.9-2.5c0-1.2-0.6-2.5-1.9-2.5C285.5,789.8,284.9,791,284.9,792.4z"/>
			<path d="M293.3,789.3v3.6c0,1.4,0.6,1.9,1.4,1.9c0.9,0,1.5-0.6,1.5-1.9v-3.6h0.8v3.5c0,1.9-1,2.6-2.3,2.6c-1.2,0-2.2-0.7-2.2-2.6
				v-3.6H293.3z"/>
			<path d="M298.2,794.4c0.4,0.2,0.9,0.4,1.4,0.4c0.8,0,1.3-0.4,1.3-1c0-0.6-0.3-0.9-1.1-1.2c-1-0.4-1.6-0.9-1.6-1.7
				c0-0.9,0.8-1.6,2-1.6c0.6,0,1.1,0.1,1.3,0.3l-0.2,0.6c-0.2-0.1-0.6-0.3-1.2-0.3c-0.8,0-1.1,0.5-1.1,0.9c0,0.6,0.4,0.8,1.2,1.2
				c1,0.4,1.5,0.9,1.5,1.8c0,0.9-0.7,1.7-2.1,1.7c-0.6,0-1.2-0.2-1.5-0.4L298.2,794.4z"/>
			<path d="M303.7,793.5l-0.6,1.9h-0.8l2.1-6.1h0.9l2.1,6.1h-0.8l-0.6-1.9H303.7z M305.7,792.9l-0.6-1.7c-0.1-0.4-0.2-0.8-0.3-1.1h0
				c-0.1,0.4-0.2,0.7-0.3,1.1l-0.6,1.8H305.7z"/>
			<path d="M308.3,789.4c0.4-0.1,1-0.1,1.5-0.1c0.8,0,1.4,0.2,1.8,0.5c0.3,0.3,0.5,0.7,0.5,1.2c0,0.8-0.5,1.3-1.1,1.5v0
				c0.5,0.2,0.7,0.6,0.9,1.2c0.2,0.8,0.3,1.4,0.5,1.7h-0.8c-0.1-0.2-0.2-0.7-0.4-1.4c-0.2-0.8-0.5-1.2-1.2-1.2h-0.7v2.6h-0.8V789.4z
				 M309.1,792.2h0.8c0.8,0,1.4-0.5,1.4-1.2c0-0.8-0.6-1.1-1.4-1.1c-0.4,0-0.6,0-0.8,0.1V792.2z"/>
			<path d="M318.2,792.5h-2.4v2.2h2.6v0.7H315v-6.1h3.3v0.7h-2.5v1.9h2.4V792.5z"/>
			<path d="M319.3,794.4c0.4,0.2,0.9,0.4,1.4,0.4c0.8,0,1.3-0.4,1.3-1c0-0.6-0.3-0.9-1.1-1.2c-1-0.4-1.6-0.9-1.6-1.7
				c0-0.9,0.8-1.6,2-1.6c0.6,0,1.1,0.1,1.3,0.3l-0.2,0.6c-0.2-0.1-0.6-0.3-1.2-0.3c-0.8,0-1.1,0.5-1.1,0.9c0,0.6,0.4,0.8,1.2,1.2
				c1,0.4,1.5,0.9,1.5,1.8c0,0.9-0.7,1.7-2.1,1.7c-0.6,0-1.2-0.2-1.5-0.4L319.3,794.4z"/>
			<path d="M325,790h-1.8v-0.7h4.5v0.7h-1.9v5.4H325V790z"/>
			<path d="M331.5,792.5h-2.4v2.2h2.6v0.7h-3.4v-6.1h3.3v0.7h-2.5v1.9h2.4V792.5z"/>
			<path d="M337.8,792.5h-2.4v2.2h2.6v0.7h-3.4v-6.1h3.3v0.7h-2.5v1.9h2.4V792.5z"/>
			<path d="M339,794.4c0.4,0.2,0.9,0.4,1.4,0.4c0.8,0,1.3-0.4,1.3-1c0-0.6-0.3-0.9-1.1-1.2c-1-0.4-1.6-0.9-1.6-1.7
				c0-0.9,0.8-1.6,2-1.6c0.6,0,1.1,0.1,1.3,0.3l-0.2,0.6c-0.2-0.1-0.6-0.3-1.2-0.3c-0.8,0-1.1,0.5-1.1,0.9c0,0.6,0.4,0.8,1.2,1.2
				c1,0.4,1.5,0.9,1.5,1.8c0,0.9-0.7,1.7-2.1,1.7c-0.6,0-1.2-0.2-1.5-0.4L339,794.4z"/>
			<path d="M347.8,795.2c-0.3,0.1-0.9,0.3-1.6,0.3c-1.7,0-3-1.1-3-3.1c0-1.9,1.3-3.2,3.2-3.2c0.8,0,1.2,0.2,1.4,0.3l-0.2,0.6
				c-0.3-0.1-0.7-0.3-1.2-0.3c-1.4,0-2.4,0.9-2.4,2.5c0,1.5,0.9,2.4,2.3,2.4c0.5,0,1-0.1,1.3-0.3L347.8,795.2z"/>
			<path d="M349.6,789.3v3.6c0,1.4,0.6,1.9,1.4,1.9c0.9,0,1.5-0.6,1.5-1.9v-3.6h0.8v3.5c0,1.9-1,2.6-2.3,2.6c-1.2,0-2.2-0.7-2.2-2.6
				v-3.6H349.6z"/>
			<path d="M354.6,789.4c0.5-0.1,1-0.1,1.7-0.1c1.1,0,1.9,0.3,2.5,0.8c0.5,0.5,0.9,1.2,0.9,2.2c0,1-0.3,1.8-0.9,2.4
				c-0.6,0.6-1.5,0.9-2.7,0.9c-0.6,0-1,0-1.4-0.1V789.4z M355.4,794.8c0.2,0,0.5,0,0.8,0c1.7,0,2.6-0.9,2.6-2.6
				c0-1.4-0.8-2.3-2.5-2.3c-0.4,0-0.7,0-0.9,0.1V794.8z"/>
			<path d="M365.8,792.3c0,2.1-1.3,3.2-2.8,3.2c-1.6,0-2.7-1.2-2.7-3.1c0-1.9,1.2-3.2,2.8-3.2C364.7,789.2,365.8,790.5,365.8,792.3z
				 M361.1,792.4c0,1.3,0.7,2.5,1.9,2.5c1.2,0,1.9-1.1,1.9-2.5c0-1.2-0.6-2.5-1.9-2.5C361.7,789.8,361.1,791,361.1,792.4z"/>
		</g>
		<g>
			<path d="M456.3,795.4l-2-6.1h0.8l0.9,3c0.3,0.8,0.5,1.6,0.6,2.3h0c0.2-0.7,0.4-1.5,0.7-2.3l1-3h0.8l-2.2,6.1H456.3z"/>
			<path d="M463.1,792.5h-2.4v2.2h2.6v0.7H460v-6.1h3.3v0.7h-2.5v1.9h2.4V792.5z"/>
			<path d="M464.4,789.4c0.4-0.1,1-0.1,1.5-0.1c0.8,0,1.4,0.2,1.8,0.5c0.3,0.3,0.5,0.7,0.5,1.2c0,0.8-0.5,1.3-1.1,1.5v0
				c0.5,0.2,0.7,0.6,0.9,1.2c0.2,0.8,0.3,1.4,0.5,1.7h-0.8c-0.1-0.2-0.2-0.7-0.4-1.4c-0.2-0.8-0.5-1.2-1.2-1.2h-0.7v2.6h-0.8V789.4z
				 M465.2,792.2h0.8c0.8,0,1.4-0.5,1.4-1.2c0-0.8-0.6-1.1-1.4-1.1c-0.4,0-0.6,0-0.8,0.1V792.2z"/>
			<path d="M469.1,794.4c0.4,0.2,0.9,0.4,1.4,0.4c0.8,0,1.3-0.4,1.3-1c0-0.6-0.3-0.9-1.1-1.2c-1-0.4-1.6-0.9-1.6-1.7
				c0-0.9,0.8-1.6,2-1.6c0.6,0,1.1,0.1,1.3,0.3l-0.2,0.6c-0.2-0.1-0.6-0.3-1.2-0.3c-0.8,0-1.1,0.5-1.1,0.9c0,0.6,0.4,0.8,1.2,1.2
				c1,0.4,1.5,0.9,1.5,1.8c0,0.9-0.7,1.7-2.1,1.7c-0.6,0-1.2-0.2-1.5-0.4L469.1,794.4z"/>
			<path d="M474.5,789.3v6.1h-0.8v-6.1H474.5z"/>
			<path d="M481,792.3c0,2.1-1.3,3.2-2.8,3.2c-1.6,0-2.7-1.2-2.7-3.1c0-1.9,1.2-3.2,2.8-3.2C480,789.2,481,790.5,481,792.3z
				 M476.3,792.4c0,1.3,0.7,2.5,1.9,2.5c1.2,0,1.9-1.1,1.9-2.5c0-1.2-0.6-2.5-1.9-2.5C477,789.8,476.3,791,476.3,792.4z
				 M479.6,787.9l-1.1,1h-0.6l0.8-1H479.6z"/>
			<path d="M482,795.4v-6.1h0.9l1.9,3.1c0.5,0.7,0.8,1.4,1.1,2l0,0c-0.1-0.8-0.1-1.5-0.1-2.5v-2.5h0.7v6.1h-0.8l-1.9-3.1
				c-0.4-0.7-0.8-1.4-1.1-2l0,0c0,0.8,0.1,1.5,0.1,2.5v2.6H482z"/>
			<path d="M495,792.7c0-0.8-0.1-1.9-0.1-2.6h0c-0.2,0.7-0.5,1.5-0.8,2.3l-1.1,2.9h-0.6l-1-2.9c-0.3-0.9-0.5-1.6-0.7-2.4h0
				c0,0.8-0.1,1.8-0.1,2.7l-0.2,2.6h-0.7l0.4-6.1h1l1,2.9c0.3,0.7,0.5,1.4,0.6,2h0c0.2-0.6,0.4-1.3,0.6-2l1.1-2.9h1l0.4,6.1h-0.8
				L495,792.7z"/>
			<path d="M502.3,792.3c0,2.1-1.3,3.2-2.8,3.2c-1.6,0-2.7-1.2-2.7-3.1c0-1.9,1.2-3.2,2.8-3.2C501.2,789.2,502.3,790.5,502.3,792.3z
				 M497.6,792.4c0,1.3,0.7,2.5,1.9,2.5c1.2,0,1.9-1.1,1.9-2.5c0-1.2-0.6-2.5-1.9-2.5C498.2,789.8,497.6,791,497.6,792.4z"/>
			<path d="M503.3,795.4v-6.1h0.9l1.9,3.1c0.5,0.7,0.8,1.4,1.1,2l0,0c-0.1-0.8-0.1-1.5-0.1-2.5v-2.5h0.7v6.1h-0.8l-1.9-3.1
				c-0.4-0.7-0.8-1.4-1.1-2l0,0c0,0.8,0.1,1.5,0.1,2.5v2.6H503.3z"/>
			<path d="M514.4,792.3c0,2.1-1.3,3.2-2.8,3.2c-1.6,0-2.7-1.2-2.7-3.1c0-1.9,1.2-3.2,2.8-3.2C513.3,789.2,514.4,790.5,514.4,792.3z
				 M509.7,792.4c0,1.3,0.7,2.5,1.9,2.5c1.2,0,1.9-1.1,1.9-2.5c0-1.2-0.6-2.5-1.9-2.5C510.4,789.8,509.7,791,509.7,792.4z"/>
			<path d="M519.7,795.2c-0.3,0.1-0.9,0.3-1.6,0.3c-1.7,0-3-1.1-3-3.1c0-1.9,1.3-3.2,3.2-3.2c0.8,0,1.2,0.2,1.4,0.3l-0.2,0.6
				c-0.3-0.1-0.7-0.3-1.2-0.3c-1.4,0-2.4,0.9-2.4,2.5c0,1.5,0.9,2.4,2.3,2.4c0.5,0,1-0.1,1.3-0.3L519.7,795.2z"/>
			<path d="M520.7,789.4c0.4-0.1,1-0.1,1.5-0.1c0.8,0,1.4,0.2,1.8,0.5c0.3,0.3,0.5,0.7,0.5,1.2c0,0.8-0.5,1.3-1.1,1.5v0
				c0.5,0.2,0.7,0.6,0.9,1.2c0.2,0.8,0.3,1.4,0.5,1.7h-0.8c-0.1-0.2-0.2-0.7-0.4-1.4c-0.2-0.8-0.5-1.2-1.2-1.2h-0.7v2.6h-0.8V789.4z
				 M521.4,792.2h0.8c0.8,0,1.4-0.5,1.4-1.2c0-0.8-0.6-1.1-1.4-1.1c-0.4,0-0.6,0-0.8,0.1V792.2z"/>
			<path d="M530.7,792.3c0,2.1-1.3,3.2-2.8,3.2c-1.6,0-2.7-1.2-2.7-3.1c0-1.9,1.2-3.2,2.8-3.2C529.6,789.2,530.7,790.5,530.7,792.3z
				 M526,792.4c0,1.3,0.7,2.5,1.9,2.5c1.2,0,1.9-1.1,1.9-2.5c0-1.2-0.6-2.5-1.9-2.5C526.6,789.8,526,791,526,792.4z"/>
			<path d="M536.8,792.7c0-0.8-0.1-1.9-0.1-2.6h0c-0.2,0.7-0.5,1.5-0.8,2.3l-1.1,2.9h-0.6l-1-2.9c-0.3-0.9-0.5-1.6-0.7-2.4h0
				c0,0.8-0.1,1.8-0.1,2.7l-0.2,2.6h-0.7l0.4-6.1h1l1,2.9c0.3,0.7,0.5,1.4,0.6,2h0c0.2-0.6,0.4-1.3,0.6-2l1.1-2.9h1l0.4,6.1H537
				L536.8,792.7z"/>
			<path d="M544.1,792.3c0,2.1-1.3,3.2-2.8,3.2c-1.6,0-2.7-1.2-2.7-3.1c0-1.9,1.2-3.2,2.8-3.2C543.1,789.2,544.1,790.5,544.1,792.3z
				 M539.4,792.4c0,1.3,0.7,2.5,1.9,2.5c1.2,0,1.9-1.1,1.9-2.5c0-1.2-0.6-2.5-1.9-2.5C540.1,789.8,539.4,791,539.4,792.4z"/>
			<path d="M547,794.4c0.4,0.2,0.9,0.4,1.4,0.4c0.8,0,1.3-0.4,1.3-1c0-0.6-0.3-0.9-1.1-1.2c-1-0.4-1.6-0.9-1.6-1.7
				c0-0.9,0.8-1.6,2-1.6c0.6,0,1.1,0.1,1.3,0.3l-0.2,0.6c-0.2-0.1-0.6-0.3-1.2-0.3c-0.8,0-1.1,0.5-1.1,0.9c0,0.6,0.4,0.8,1.2,1.2
				c1,0.4,1.5,0.9,1.5,1.8c0,0.9-0.7,1.7-2.1,1.7c-0.6,0-1.2-0.2-1.5-0.4L547,794.4z"/>
			<path d="M556.7,792.3c0,2.1-1.3,3.2-2.8,3.2c-1.6,0-2.7-1.2-2.7-3.1c0-1.9,1.2-3.2,2.8-3.2C555.6,789.2,556.7,790.5,556.7,792.3z
				 M552,792.4c0,1.3,0.7,2.5,1.9,2.5c1.2,0,1.9-1.1,1.9-2.5c0-1.2-0.6-2.5-1.9-2.5C552.6,789.8,552,791,552,792.4z"/>
			<path d="M557.7,789.4c0.3-0.1,0.9-0.1,1.4-0.1c0.8,0,1.3,0.1,1.7,0.4c0.3,0.2,0.5,0.6,0.5,1.1c0,0.6-0.4,1.1-1,1.3v0
				c0.6,0.1,1.3,0.6,1.3,1.5c0,0.5-0.2,0.9-0.5,1.2c-0.4,0.4-1.1,0.6-2.1,0.6c-0.5,0-1,0-1.2-0.1V789.4z M558.5,791.9h0.7
				c0.8,0,1.3-0.4,1.3-1c0-0.7-0.5-1-1.3-1c-0.4,0-0.6,0-0.7,0.1V791.9z M558.5,794.8c0.2,0,0.4,0,0.7,0c0.8,0,1.6-0.3,1.6-1.2
				c0-0.8-0.7-1.2-1.6-1.2h-0.6V794.8z"/>
			<path d="M562.6,789.4c0.4-0.1,1-0.1,1.5-0.1c0.8,0,1.4,0.2,1.8,0.5c0.3,0.3,0.5,0.7,0.5,1.2c0,0.8-0.5,1.3-1.1,1.5v0
				c0.5,0.2,0.7,0.6,0.9,1.2c0.2,0.8,0.3,1.4,0.5,1.7h-0.8c-0.1-0.2-0.2-0.7-0.4-1.4c-0.2-0.8-0.5-1.2-1.2-1.2h-0.7v2.6h-0.8V789.4z
				 M563.4,792.2h0.8c0.8,0,1.4-0.5,1.4-1.2c0-0.8-0.6-1.1-1.4-1.1c-0.4,0-0.6,0-0.8,0.1V792.2z"/>
			<path d="M570.6,792.5h-2.4v2.2h2.6v0.7h-3.4v-6.1h3.3v0.7h-2.5v1.9h2.4V792.5z"/>
			<path d="M573.8,789.3h3.3v0.7h-2.5v2h2.3v0.6h-2.3v2.7h-0.8V789.3z"/>
			<path d="M583.3,792.3c0,2.1-1.3,3.2-2.8,3.2c-1.6,0-2.7-1.2-2.7-3.1c0-1.9,1.2-3.2,2.8-3.2C582.3,789.2,583.3,790.5,583.3,792.3z
				 M578.6,792.4c0,1.3,0.7,2.5,1.9,2.5c1.2,0,1.9-1.1,1.9-2.5c0-1.2-0.6-2.5-1.9-2.5C579.3,789.8,578.6,791,578.6,792.4z"/>
			<path d="M584.3,795.4v-6.1h0.9l1.9,3.1c0.4,0.7,0.8,1.4,1.1,2l0,0c-0.1-0.8-0.1-1.5-0.1-2.5v-2.5h0.7v6.1h-0.8l-1.9-3.1
				c-0.4-0.7-0.8-1.4-1.1-2l0,0c0,0.8,0.1,1.5,0.1,2.5v2.6H584.3z"/>
			<path d="M590.3,789.4c0.5-0.1,1-0.1,1.7-0.1c1.1,0,1.9,0.3,2.5,0.8c0.5,0.5,0.9,1.2,0.9,2.2c0,1-0.3,1.8-0.9,2.4
				c-0.6,0.6-1.5,0.9-2.7,0.9c-0.6,0-1,0-1.4-0.1V789.4z M591.1,794.8c0.2,0,0.5,0,0.8,0c1.7,0,2.6-0.9,2.6-2.6
				c0-1.4-0.8-2.3-2.5-2.3c-0.4,0-0.7,0-0.9,0.1V794.8z"/>
			<path d="M601.4,792.3c0,2.1-1.3,3.2-2.8,3.2c-1.6,0-2.7-1.2-2.7-3.1c0-1.9,1.2-3.2,2.8-3.2C600.4,789.2,601.4,790.5,601.4,792.3z
				 M596.7,792.4c0,1.3,0.7,2.5,1.9,2.5c1.2,0,1.9-1.1,1.9-2.5c0-1.2-0.6-2.5-1.9-2.5C597.4,789.8,596.7,791,596.7,792.4z"/>
			<path d="M604.4,789.4c0.4-0.1,1-0.1,1.5-0.1c0.8,0,1.4,0.2,1.8,0.5c0.3,0.3,0.5,0.7,0.5,1.2c0,0.8-0.5,1.3-1.1,1.5v0
				c0.5,0.2,0.7,0.6,0.9,1.2c0.2,0.8,0.3,1.4,0.5,1.7h-0.8c-0.1-0.2-0.2-0.7-0.4-1.4c-0.2-0.8-0.5-1.2-1.2-1.2h-0.7v2.6h-0.8V789.4z
				 M605.2,792.2h0.8c0.8,0,1.4-0.5,1.4-1.2c0-0.8-0.6-1.1-1.4-1.1c-0.4,0-0.6,0-0.8,0.1V792.2z"/>
			<path d="M614.4,792.3c0,2.1-1.3,3.2-2.8,3.2c-1.6,0-2.7-1.2-2.7-3.1c0-1.9,1.2-3.2,2.8-3.2C613.4,789.2,614.4,790.5,614.4,792.3z
				 M609.7,792.4c0,1.3,0.7,2.5,1.9,2.5c1.2,0,1.9-1.1,1.9-2.5c0-1.2-0.6-2.5-1.9-2.5C610.4,789.8,609.7,791,609.7,792.4z"/>
			<path d="M616.7,789.3h0.8v4.1c0,1.6-0.8,2.1-1.8,2.1c-0.3,0-0.6-0.1-0.8-0.1l0.1-0.6c0.2,0.1,0.4,0.1,0.7,0.1
				c0.7,0,1.1-0.3,1.1-1.5V789.3z"/>
			<path d="M624,792.3c0,2.1-1.3,3.2-2.8,3.2c-1.6,0-2.7-1.2-2.7-3.1c0-1.9,1.2-3.2,2.8-3.2C622.9,789.2,624,790.5,624,792.3z
				 M619.2,792.4c0,1.3,0.7,2.5,1.9,2.5c1.2,0,1.9-1.1,1.9-2.5c0-1.2-0.6-2.5-1.9-2.5C619.9,789.8,619.2,791,619.2,792.4z"/>
		</g>
		<g>
			<path class="st2" d="M534.6,575.8l-1.5-12.9c-0.1-1-0.2-1.4-0.6-1.8l-4.1,8.9L534.6,575.8z"/>
			<path class="st2" d="M603.1,531.1l-0.2-4.1h-4.1c-6.2,0-11.9-3.2-15.2-8.5l-2.9-4.7l-3.9,3.9c-4.6,4.6-10.7,7.1-17.3,7.1
				c-6.5,0-12.7-2.5-17.3-7.2l-3.1-3.1l-3.1,3.1c-4.6,4.6-10.7,7.2-17.3,7.2c-6.5,0-12.7-2.5-17.3-7.1l-3.9-3.9l-2.9,4.7
				c-3.3,5.3-8.9,8.5-15.2,8.5h-4.1l-0.2,4.1c-1.7,30.9,5.4,57.6,21.1,79.6c13.1,18.3,29.3,29.3,40.7,35.3l2,1.1l2-1.1
				c11.4-6,27.7-17,40.7-35.3C597.7,588.8,604.8,562,603.1,531.1z M508.1,534.2c5.1,0,8.8,3.1,10,10.4c0,0.8-0.3,1.6-2.3,1.3
				c-2-0.3-2.4-1-2.6-1.9c-0.4-2.4-1.3-4.8-3.2-4.8c-1.9,0-2.9,1.7-3,3.7c-0.3,10.3,1,13,3.6,13c2.2,0,2.9-1.5,2.7-4.5
				c-0.1-0.9,0-1.6,2-1.9c2.3-0.4,2.5,0.8,2.3,1.7c-1.9,6.2-5.1,8.1-9.6,8.1c-5.6,0-10.1-4.2-10.1-12.6
				C498,538.3,502.5,534.2,508.1,534.2z M494.8,531.9c1.3,0,2.3,1,2.3,2.3c0,1.3-1,2.3-2.3,2.3c-1.2,0-2.3-1-2.3-2.3
				C492.6,532.9,493.6,531.9,494.8,531.9z M539.3,642.2c-19.9-10.5-57-37.7-59.6-95.9l84.2,78.5C555.1,633,546.2,638.5,539.3,642.2z
				 M529.4,556.7c-0.4-1.5,0,0-0.4-1.5c-0.4-1.4,0.5-2.2,1.6-1.1l10.5,9.8c0.7,0.7,0.4,1.8-0.1,2c-0.5,0.2-0.6,0.3-0.5,0.7l2.4,20.3
				c0.2,2,1,3.6,1.5,4.7c0.5,1.1-0.2,2.1-0.7,1.6l0.1,0.1c-0.5-0.5-10.4-9.7-10.4-9.7c-0.4-0.4-0.1-1.4,0.8-1.4
				c1.2,0,1.3-0.2,1.2-0.9c-0.2-1.6-0.2-1.6-0.2-1.6l-7.7-7.2c-0.9,1.9-0.9,1.9-0.4,3c0.5,1.1-0.2,2.1-0.7,1.6c-0.5-0.5-4.3-4-4.3-4
				c-0.4-0.4-0.1-1.4,0.8-1.4c1.2,0,1.5,0,1.9-0.9c4.8-10.6,0,0,4.8-10.6C529.9,558.9,529.6,557.7,529.4,556.7z M521,560.9
				c-1.3,0-2.3-1-2.3-2.3c0-1.3,1-2.3,2.3-2.3c1.3,0,2.3,1,2.3,2.3C523.3,559.9,522.3,560.9,521,560.9z M547.2,585.1
				c0-1.3,1-2.3,2.3-2.3c1.3,0,2.3,1,2.3,2.3c0,1.3-1,2.3-2.3,2.3C548.2,587.4,547.2,586.4,547.2,585.1z M565.6,610.8
				c0.6,1.3-0.3,2.6-1.4,1.6l-8.9-8.3c-0.8-0.8-0.5-1.8,0.1-2c0.5-0.2,1.3-0.3,1.3-1.1v-16.6c0-1.5-0.8-3.2-1.4-4.5
				c-0.6-1.3,0.3-2.6,1.4-1.6l8.9,8.3c0.8,0.8,0.5,1.8-0.1,2c-0.5,0.2-1.3,0.3-1.3,1.1v16.6C564.2,607.9,565,609.6,565.6,610.8z
				 M571.6,608.1c-1.3,0-2.3-1-2.3-2.3c0-1.3,1-2.3,2.3-2.3c1.2,0,2.3,1,2.3,2.3C573.9,607.1,572.9,608.1,571.6,608.1z M587.1,594
				l-69.4-64.8c7.8,0.4,15.7-2.4,21.7-8.4c11.2,11.2,29.4,11.2,40.6,0c3.9,6.3,10.9,10.5,18.9,10.5
				C600.2,557.3,595.1,577.8,587.1,594z"/>
		</g>
		<g>
			<g>
				<path d="M351.3,531.5l-0.4-7.9H343c-4.9,0-9.3-2.5-11.8-6.6l-5.1-8.3H325l-6.8,6.8c-3.9,3.9-9,6-14.4,6c-5.5,0-10.6-2.1-14.5-6
					l-5.9-5.9l-5.9,5.9c-3.9,3.9-9,6-14.5,6c-5.5,0-10.6-2.1-14.4-6l-6.8-6.8h-1.1l-5.1,8.3c-2.5,4.1-6.9,6.6-11.8,6.6h-7.9
					l-0.4,7.9c-1.7,31.8,5.6,59.4,21.8,82.1c13.5,19,30.3,30.3,42.1,36.6l3.9,2.1l3.9-2.1c11.7-6.2,28.6-17.6,42.1-36.6
					C345.6,590.9,353,563.3,351.3,531.5z"/>
			</g>
			<g>
				<g>
					<path class="st2" d="M283.5,647.8l-2-1.1c-11.4-6-27.7-17-40.7-35.3c-15.7-22-22.7-48.7-21.1-79.6l0.2-4.1h4.1
						c6.2,0,11.9-3.2,15.2-8.5l2.9-4.7l3.9,3.9c4.6,4.6,10.7,7.1,17.3,7.1c6.5,0,12.7-2.5,17.3-7.2l3.1-3.1l3.1,3.1
						c4.6,4.6,10.7,7.2,17.3,7.2c6.5,0,12.7-2.5,17.3-7.1l3.9-3.9l2.9,4.7c3.3,5.3,8.9,8.5,15.2,8.5h4.1l0.2,4.1
						c1.7,30.9-5.4,57.6-21.1,79.6c-13.1,18.3-29.3,29.3-40.7,35.3L283.5,647.8z"/>
				</g>
				<g>
					<path class="st1" d="M343,532c-8,0-15-4.2-18.9-10.5c-11.2,11.2-29.4,11.2-40.6,0c-6,6-13.9,8.7-21.7,8.4l69.4,64.8
						C339.3,578.4,344.4,557.9,343,532z"/>
					<path class="st1" d="M283.5,642.8c6.9-3.6,15.8-9.2,24.6-17.4l-84.2-78.5C226.4,605,263.5,632.2,283.5,642.8z"/>
				</g>
				<path d="M288.5,592.1c-0.5-1.1-1.2-2.7-1.5-4.7l-2.4-20.3c0-0.5,0-0.5,0.5-0.7c0.4-0.2,0.8-1.3,0.1-2l-10.5-9.8
					c-1.1-1.1-1.9-0.3-1.6,1.1c0.4,1.5,0,0,0.4,1.5c0.3,1.1,0.5,2.2,0.1,3.2c-4.8,10.6,0,0-4.8,10.6c-0.4,1-0.7,0.9-1.9,0.9
					c-0.9,0-1.2,1-0.8,1.4c0,0,3.8,3.5,4.3,4c0.5,0.5,1.2-0.5,0.7-1.6c-0.5-1.1-0.5-1.1,0.4-3l7.7,7.2c0,0,0,0,0.2,1.6
					c0.1,0.7,0,0.9-1.2,0.9c-0.9,0-1.2,1-0.8,1.4c0,0,9.9,9.2,10.4,9.7l-0.1-0.1C288.3,594.2,289,593.2,288.5,592.1z M272.6,570.6
					l4.1-8.9c0.4,0.4,0.5,0.8,0.6,1.8l1.5,12.9L272.6,570.6z"/>
				<g>
					<path d="M259.5,550c-2,0.3-2.1,1-2,1.9c0.2,3-0.5,4.5-2.7,4.5c-2.7,0-3.9-2.7-3.6-13c0.1-1.9,1-3.7,3-3.7
						c1.9,0,2.8,2.4,3.2,4.8c0.2,0.9,0.5,1.6,2.6,1.9c2,0.3,2.4-0.5,2.3-1.3c-1.2-7.2-4.9-10.4-10-10.4c-5.6,0-10.1,4.2-10.1,12.6
						c0,8.4,4.5,12.6,10.1,12.6c4.5,0,7.7-1.9,9.6-8.1C262,550.8,261.9,549.7,259.5,550z"/>
				</g>
				<path d="M308.4,590.4c0-0.8,0.7-1,1.3-1.1c0.5-0.2,0.9-1.2,0.1-2l-8.9-8.3c-1.1-1.1-2,0.3-1.4,1.6c0.6,1.3,1.4,2.9,1.4,4.5v16.6
					c0,0.8-0.7,1-1.3,1.1c-0.5,0.2-0.9,1.2-0.1,2l8.9,8.3c1.1,1.1,2-0.3,1.4-1.6c-0.6-1.3-1.4-2.9-1.4-4.5V590.4z"/>
				<path d="M241.3,534.8c0,1.3-1,2.3-2.3,2.3c-1.2,0-2.3-1-2.3-2.3c0-1.3,1-2.3,2.3-2.3C240.3,532.5,241.3,533.5,241.3,534.8z"/>
				<path d="M267.5,559.2c0,1.3-1,2.3-2.3,2.3c-1.3,0-2.3-1-2.3-2.3c0-1.3,1-2.3,2.3-2.3C266.5,556.9,267.5,558,267.5,559.2z"/>
				<path d="M295.9,585.7c0,1.3-1,2.3-2.3,2.3c-1.3,0-2.3-1-2.3-2.3c0-1.3,1-2.3,2.3-2.3C294.9,583.4,295.9,584.5,295.9,585.7z"/>
				<path d="M318.1,606.4c0,1.3-1,2.3-2.3,2.3c-1.3,0-2.3-1-2.3-2.3c0-1.3,1-2.3,2.3-2.3C317.1,604.1,318.1,605.2,318.1,606.4z"/>
			</g>
		</g>
		<g>
			<g>
				<g>
					<path class="st2" d="M27.6,647.2l-2-1.1c-11.4-6-27.7-17-40.7-35.3c-15.7-22-22.7-48.7-21.1-79.6l0.2-4.1h4.1
						c6.2,0,11.9-3.2,15.2-8.5l2.9-4.7l3.9,3.9c4.6,4.6,10.7,7.1,17.3,7.1c6.5,0,12.7-2.5,17.3-7.2l3.1-3.1l3.1,3.1
						c4.6,4.6,10.7,7.2,17.3,7.2c6.5,0,12.7-2.5,17.3-7.1l3.9-3.9l2.9,4.7c3.3,5.3,8.9,8.5,15.2,8.5h4.1l0.2,4.1
						c1.7,30.9-5.4,57.6-21.1,79.6c-13.1,18.3-29.3,29.3-40.7,35.3L27.6,647.2z"/>
				</g>
				<g>
					<path class="st1" d="M87.1,531.4c-8,0-15-4.2-18.9-10.5c-11.2,11.2-29.4,11.2-40.6,0c-6,6-13.9,8.8-21.7,8.4L75.4,594
						C83.5,577.8,88.5,557.3,87.1,531.4z"/>
					<path class="st1" d="M27.6,642.2c6.9-3.6,15.8-9.2,24.6-17.4l-84.2-78.5C-29.4,604.4,7.7,631.6,27.6,642.2z"/>
				</g>
				<g>
					<path d="M32.7,591.5c-0.5-1.1-1.2-2.7-1.5-4.7l-2.4-20.3c0-0.5,0-0.5,0.5-0.7c0.4-0.2,0.8-1.3,0.1-2L18.9,554
						c-1.1-1.1-1.9-0.3-1.6,1.1c0.4,1.5,0,0,0.4,1.5c0.3,1.1,0.5,2.2,0.1,3.2c-4.8,10.6,0,0-4.8,10.6c-0.4,1-0.7,0.9-1.9,0.9
						c-0.9,0-1.2,1-0.8,1.4c0,0,3.8,3.5,4.3,4c0.5,0.5,1.2-0.5,0.7-1.6c-0.5-1.1-0.5-1.1,0.4-3l7.7,7.2c0,0,0,0,0.2,1.6
						c0.1,0.7,0,0.9-1.2,0.9c-0.9,0-1.2,1-0.8,1.4c0,0,9.9,9.2,10.4,9.7l-0.1-0.1C32.4,593.6,33.2,592.6,32.7,591.5z M16.7,570
						l4.1-8.9c0.4,0.4,0.5,0.8,0.6,1.8l1.5,12.9L16.7,570z"/>
					<g>
						<path d="M3.7,549.4c-2,0.3-2.1,1-2,1.9c0.2,3-0.5,4.5-2.7,4.5c-2.7,0-3.9-2.7-3.6-13c0.1-1.9,1-3.7,3-3.7
							c1.9,0,2.8,2.4,3.2,4.8c0.2,0.9,0.5,1.6,2.6,1.9c2,0.3,2.4-0.5,2.3-1.3c-1.2-7.2-4.9-10.4-10-10.4c-5.6,0-10.1,4.2-10.1,12.6
							c0,8.4,4.5,12.6,10.1,12.6c4.5,0,7.7-1.9,9.6-8.1C6.2,550.2,6,549.1,3.7,549.4z"/>
					</g>
					<path d="M52.6,589.8c0-0.8,0.7-1,1.3-1.1c0.5-0.2,0.9-1.2,0.1-2l-8.9-8.3c-1.1-1.1-2,0.3-1.4,1.6c0.6,1.3,1.4,2.9,1.4,4.5V601
						c0,0.8-0.7,1-1.3,1.1c-0.5,0.2-0.9,1.2-0.1,2l8.9,8.3c1.1,1.1,2-0.3,1.4-1.6c-0.6-1.3-1.4-2.9-1.4-4.5V589.8z"/>
					<path d="M-14.6,534.2c0,1.3-1,2.3-2.3,2.3c-1.2,0-2.3-1-2.3-2.3c0-1.3,1-2.3,2.3-2.3C-15.6,531.9-14.6,532.9-14.6,534.2z"/>
					<path d="M11.7,558.6c0,1.3-1,2.3-2.3,2.3c-1.3,0-2.3-1-2.3-2.3c0-1.3,1-2.3,2.3-2.3C10.7,556.3,11.7,557.4,11.7,558.6z"/>
					<path d="M40.1,585.1c0,1.3-1,2.3-2.3,2.3c-1.3,0-2.3-1-2.3-2.3c0-1.3,1-2.3,2.3-2.3C39.1,582.8,40.1,583.9,40.1,585.1z"/>
					<path d="M62.3,605.8c0,1.3-1,2.3-2.3,2.3c-1.3,0-2.3-1-2.3-2.3c0-1.3,1-2.3,2.3-2.3C61.2,603.5,62.3,604.6,62.3,605.8z"/>
				</g>
			</g>
		</g>
	</g>
</g>
<g id="Layer_1">
	<rect y="0" class="st1" width="566.9" height="354.3"/>
	<g>
		<g>
			<g>
				<path class="st2" d="M283.5,303.1l-3.8-2c-21.5-11.4-52.3-32.2-76.9-66.8c-29.6-41.5-43-92.1-39.8-150.4l0.4-7.7h7.7
					c11.8,0,22.5-6,28.7-16l5.4-8.8l7.3,7.3c8.7,8.7,20.3,13.5,32.6,13.5c12.3,0,23.9-4.8,32.6-13.5l5.8-5.8l5.8,5.8
					c8.7,8.7,20.3,13.5,32.6,13.5c12.3,0,23.9-4.8,32.6-13.5l7.3-7.3l5.4,8.8c6.1,10,16.9,16,28.7,16h7.7l0.4,7.7
					c3.2,58.3-10.2,108.9-39.8,150.4c-24.7,34.6-55.5,55.4-76.9,66.8L283.5,303.1z"/>
			</g>
			<g>
				<path class="st1" d="M395.9,84.3c-15.1,0-28.3-8-35.6-19.9c-21.2,21.2-55.6,21.2-76.8,0c-11.3,11.3-26.2,16.5-41,15.9
					l131.2,122.4C388.9,172.1,398.6,133.2,395.9,84.3z"/>
				<path class="st1" d="M283.5,293.7c13-6.9,29.8-17.3,46.5-32.8L170.9,112.4C175.7,222.4,245.8,273.7,283.5,293.7z"/>
			</g>
			<g>
				<path d="M293,197.9c-0.9-2.1-2.3-5.1-2.8-8.9l-4.5-38.3c-0.1-0.9,0.1-0.9,1-1.4c0.8-0.4,1.4-2.5,0.1-3.7L267,127.1
					c-2-2-3.7-0.5-3,2.1c0.7,2.9,0,0,0.7,2.9c0.5,2,1,4.2,0.1,6.1c-9.1,20,0,0-9.1,20c-0.8,1.8-1.3,1.8-3.6,1.8
					c-1.7,0-2.3,1.9-1.5,2.7c0,0,7.1,6.6,8.1,7.5c1,1,2.3-0.9,1.4-3c-0.9-2.1-0.9-2.1,0.8-5.7l14.6,13.6c0,0,0,0,0.4,3.1
					c0.2,1.4,0,1.7-2.3,1.7c-1.7,0-2.3,1.9-1.5,2.7c0,0,18.7,17.4,19.7,18.4l-0.1-0.1C292.5,201.8,293.9,200,293,197.9z
					 M262.8,157.2l7.7-16.8c0.7,0.8,0.9,1.5,1.2,3.4l2.9,24.4L262.8,157.2z"/>
				<g>
					<path d="M238.2,118.4c-3.8,0.6-3.9,1.8-3.8,3.6c0.4,5.7-0.9,8.5-5,8.5c-5.1,0-7.4-5.2-6.9-24.6c0.1-3.6,2-6.9,5.6-6.9
						c3.6,0,5.2,4.5,6,9c0.3,1.7,1,3,4.8,3.6c3.8,0.6,4.5-0.9,4.4-2.5c-2.2-13.7-9.3-19.6-18.9-19.6c-10.6,0-19.1,7.9-19.1,23.7
						c0,15.8,8.6,23.7,19.1,23.7c8.5,0,14.5-3.6,18.2-15.3C243,119.9,242.6,117.7,238.2,118.4z"/>
				</g>
				<path d="M330.6,194.6c0-1.6,1.3-1.8,2.4-2.1c1-0.3,1.7-2.2,0.1-3.8L316.3,173c-2-2-3.8,0.5-2.6,3c1.2,2.4,2.7,5.5,2.7,8.4v31.4
					c0,1.6-1.3,1.8-2.4,2.1c-1,0.3-1.7,2.2-0.1,3.8l16.8,15.7c2,2,3.8-0.5,2.6-3c-1.2-2.4-2.7-5.5-2.7-8.4V194.6z"/>
				<path d="M203.7,89.6c0,2.4-1.9,4.3-4.3,4.3c-2.4,0-4.3-1.9-4.3-4.3c0-2.4,1.9-4.3,4.3-4.3C201.8,85.3,203.7,87.2,203.7,89.6z"/>
				<path d="M253.3,135.7c0,2.4-1.9,4.3-4.3,4.3c-2.4,0-4.3-1.9-4.3-4.3c0-2.4,1.9-4.3,4.3-4.3C251.4,131.4,253.3,133.4,253.3,135.7
					z"/>
				<path d="M306.9,185.8c0,2.4-1.9,4.3-4.3,4.3c-2.4,0-4.3-1.9-4.3-4.3c0-2.4,1.9-4.3,4.3-4.3C305,181.5,306.9,183.4,306.9,185.8z"
					/>
				<path d="M348.9,224.9c0,2.4-1.9,4.3-4.3,4.3c-2.4,0-4.3-1.9-4.3-4.3c0-2.4,1.9-4.3,4.3-4.3C347,220.6,348.9,222.6,348.9,224.9z"
					/>
			</g>
		</g>
	</g>
</g>
</svg>
