<?xml version="1.0" encoding="UTF-8" standalone="no"?>
<!-- Generator: Adobe Illustrator 13.0.0, SVG Export Plug-In . SVG Version: 6.00 Build 14948)  -->

<svg
   xmlns:dc="http://purl.org/dc/elements/1.1/"
   xmlns:cc="http://creativecommons.org/ns#"
   xmlns:rdf="http://www.w3.org/1999/02/22-rdf-syntax-ns#"
   xmlns:svg="http://www.w3.org/2000/svg"
   xmlns="http://www.w3.org/2000/svg"
   xmlns:sodipodi="http://sodipodi.sourceforge.net/DTD/sodipodi-0.dtd"
   xmlns:inkscape="http://www.inkscape.org/namespaces/inkscape"
   version="1.1"
   id="Layer_1"
   x="0px"
   y="0px"
   width="580"
   height="650"
   viewBox="0 0 580 650"
   enable-background="new 0 0 600 754"
   xml:space="preserve"
   inkscape:version="0.48.4 r9939"
   sodipodi:docname="Once_Caldas_logo.svg"><metadata
   id="metadata3093"><rdf:RDF><cc:Work
       rdf:about=""><dc:format>image/svg+xml</dc:format><dc:type
         rdf:resource="http://purl.org/dc/dcmitype/StillImage" /></cc:Work></rdf:RDF></metadata><defs
   id="defs3091" /><sodipodi:namedview
   pagecolor="#ffffff"
   bordercolor="#666666"
   borderopacity="1"
   objecttolerance="10"
   gridtolerance="10"
   guidetolerance="10"
   inkscape:pageopacity="0"
   inkscape:pageshadow="2"
   inkscape:window-width="1600"
   inkscape:window-height="844"
   id="namedview3089"
   showgrid="false"
   inkscape:zoom="1.3063128"
   inkscape:cx="313.5189"
   inkscape:cy="192.66497"
   inkscape:window-x="-4"
   inkscape:window-y="-4"
   inkscape:window-maximized="1"
   inkscape:current-layer="Layer_1" />
<path
   d="m 557.96,517.518 c 0,20.006 -10.912,64.105 -47.283,65.469 0,0 -155.984,-0.023 -160.148,0 -38.256,0.219 -51.028,54.561 -51.028,54.561 0,0 -10.851,-53.314 -51.028,-54.561 -2.976,-0.092 -160.146,0 -160.146,0 -27.28,0 -47.285,-28.641 -47.285,-56.377 V 26.515 c 0.771,0.034 514.367,0.034 516.92,0 v 491.003 z"
   id="path3041"
   inkscape:connector-curvature="0"
   style="fill:#0a006d" />
<g
   id="g3043"
   transform="translate(0,-104)">
	<path
   d="m 299.675,725.26 c -6.713,-17.066 -21.6,-42.357 -51.05,-43.271 -0.383,-0.01 -1.398,-0.043 -42.996,-0.043 -47.452,0 -117.307,0.041 -117.307,0.041 -24.916,0 -42.28,-27.076 -42.28,-51.377 V 135.518 c 26.468,0.019 148.562,0.023 252.79,0.023 110.271,0 228.508,-0.006 254.127,-0.021 v 485.998 c 0,19.189 -10.356,59.182 -42.363,60.469 -2.653,0 -70.185,-0.01 -116.697,-0.01 -27.561,0 -42.162,0.004 -43.398,0.01 -28.356,0.161 -43.72,25.997 -50.826,43.273 l 0,0 z"
   id="path3045"
   inkscape:connector-curvature="0"
   style="fill:#ffffff" />
</g>
<g
   id="g3047"
   transform="translate(0,-104)">
	<path
   d="m 299.769,694.477 c -13.059,-17.285 -30.452,-26.855 -50.68,-27.48 -0.651,-0.02 -1.779,-0.053 -43.461,-0.053 -47.455,0 -117.313,0.041 -117.313,0.041 -15.356,0 -27.272,-19.555 -27.272,-36.375 V 511.533 h 476.916 v 109.984 c 0,11.791 -6.569,44.342 -27.691,45.467 h -7.82 c -19.756,-0.002 -71.002,-0.01 -108.548,-0.01 -26.295,0 -42.143,0.004 -43.476,0.01 -19.879,0.118 -37.279,9.7 -50.655,27.493 l 0,0 z"
   id="path3049"
   inkscape:connector-curvature="0"
   style="fill:#0a006d" />
</g>
<g
   id="g3051"
   transform="translate(0,-104)">
	<path
   d="M 537.96,492.828 H 61.043 V 150.524 c 43.687,0.014 150.193,0.018 237.79,0.018 87.504,0 195.103,-0.004 239.127,-0.018 v 342.304 l 0,0 z"
   id="path3053"
   inkscape:connector-curvature="0"
   style="fill:#0a006d" />
</g>
<g
   id="g3055"
   transform="translate(0,-104)">
	<g
   id="g3057">
		<g
   id="g3059">
			<path
   d="m 76.323,165.527 h -0.28 V 477.828 H 224.99 V 165.541 c -57.535,-0.002 -113.787,-0.006 -148.667,-0.014 z"
   id="path3061"
   inkscape:connector-curvature="0"
   style="fill:#3d9f00" />
		</g>
	</g>
	<path
   d="m 298.833,165.542 c -23.767,0 -48.925,0 -73.843,-0.001 V 477.828 H 373.658 V 165.541 c -25.303,0.001 -50.82,0.001 -74.825,0.001 z"
   id="path3063"
   inkscape:connector-curvature="0"
   style="fill:#ffffff" />
	<g
   id="g3065">
		<g
   id="g3067">
			<path
   d="m 522.324,165.527 c -35.021,0.007 -91.288,0.012 -148.666,0.014 V 477.828 H 522.961 V 165.527 h -0.637 z"
   id="path3069"
   inkscape:connector-curvature="0"
   style="fill:#db1b36" />
		</g>
	</g>
</g>
<g
   id="g3071"
   transform="translate(0,-104)">
	<g
   id="g3073">
		<path
   d="m 351.885,385.531 c -13.883,0 -26.808,-4.064 -37.684,-11.045 14.387,-15.409 23.205,-36.083 23.205,-58.826 0,-22.744 -8.818,-43.418 -23.205,-58.827 10.875,-6.981 23.801,-11.046 37.684,-11.046 26.507,0 49.565,14.761 61.407,36.51 h 18.136 c -13.043,-31.061 -43.743,-52.877 -79.543,-52.877 -18.804,0 -36.188,6.036 -50.359,16.251 -14.172,-10.215 -31.556,-16.251 -50.358,-16.251 -47.629,0 -86.24,38.611 -86.24,86.24 0,47.629 38.611,86.239 86.24,86.239 18.804,0 36.188,-6.035 50.359,-16.251 14.171,10.215 31.555,16.251 50.358,16.251 35.8,0 66.5,-21.816 79.543,-52.876 h -18.137 c -11.842,21.748 -34.899,36.508 -61.406,36.508 z M 301.526,364.069 C 289.449,351.51 282.01,334.458 282.01,315.658 c 0,-18.8 7.438,-35.851 19.515,-48.41 12.077,12.559 19.516,29.611 19.516,48.411 0,18.8 -7.438,35.852 -19.515,48.41 z M 181.293,315.66 c 0,-38.59 31.284,-69.873 69.874,-69.873 13.882,0 26.808,4.065 37.683,11.046 -14.387,15.409 -23.205,36.083 -23.205,58.826 0,22.744 8.818,43.418 23.206,58.827 -10.876,6.981 -23.801,11.045 -37.684,11.045 -38.59,0 -69.874,-31.281 -69.874,-69.871 z"
   id="path3075"
   inkscape:connector-curvature="0"
   style="fill:#0a006d;stroke:#ffffff;stroke-width:3" />
	</g>
	<g
   id="g3077">
		<path
   d="m 351.885,385.531 c -13.883,0 -26.808,-4.064 -37.684,-11.045 14.387,-15.409 23.205,-36.083 23.205,-58.826 0,-22.744 -8.818,-43.418 -23.205,-58.827 10.875,-6.981 23.801,-11.046 37.684,-11.046 26.507,0 49.565,14.761 61.407,36.51 h 18.136 c -13.043,-31.061 -43.743,-52.877 -79.543,-52.877 -18.804,0 -36.188,6.036 -50.359,16.251 -14.172,-10.215 -31.556,-16.251 -50.358,-16.251 -47.629,0 -86.24,38.611 -86.24,86.24 0,47.629 38.611,86.239 86.24,86.239 18.804,0 36.188,-6.035 50.359,-16.251 14.171,10.215 31.555,16.251 50.358,16.251 35.8,0 66.5,-21.816 79.543,-52.876 h -18.137 c -11.842,21.748 -34.899,36.508 -61.406,36.508 z M 301.526,364.069 C 289.449,351.51 282.01,334.458 282.01,315.658 c 0,-18.8 7.438,-35.851 19.515,-48.41 12.077,12.559 19.516,29.611 19.516,48.411 0,18.8 -7.438,35.852 -19.515,48.41 z M 181.293,315.66 c 0,-38.59 31.284,-69.873 69.874,-69.873 13.882,0 26.808,4.065 37.683,11.046 -14.387,15.409 -23.205,36.083 -23.205,58.826 0,22.744 8.818,43.418 23.206,58.827 -10.876,6.981 -23.801,11.045 -37.684,11.045 -38.59,0 -69.874,-31.281 -69.874,-69.871 z"
   id="path3079"
   inkscape:connector-curvature="0"
   style="fill:none;stroke:#ffffff;stroke-width:3" />
	</g>
</g>
<polygon
   points="168.017,536.453 180.269,573.389 219.183,573.15 187.841,596.217 200.093,633.152 168.471,610.473 137.128,633.539 148.927,596.455 117.304,573.775 156.219,573.537 "
   id="polygon3081"
   transform="matrix(0.8351268,0,0,0.8351268,-2.4678483,-4.649211)"
   style="fill:#0a006d;fill-opacity:1" />
<polygon
   points="310.769,573.389 349.683,573.15 318.341,596.217 330.593,633.152 298.971,610.473 267.628,633.539 279.427,596.455 247.804,573.775 286.719,573.537 298.517,536.453 "
   id="polygon3083"
   transform="matrix(0.8351268,0,0,0.8351268,-3.6978443,-4.649211)"
   style="fill:#0a006d;fill-opacity:1" />

<polygon
   points="441.269,573.389 480.183,573.15 448.841,596.217 461.093,633.152 429.471,610.473 398.128,633.539 409.927,596.455 378.304,573.775 417.219,573.537 429.017,536.453 "
   id="polygon3087"
   transform="matrix(0.8351268,0,0,0.8351268,-4.9278583,-4.649211)"
   style="fill:#0a006d;fill-opacity:1" />
<polygon
   style="fill:#000000;fill-opacity:0"
   transform="matrix(0.8351268,0,0,0.8351268,102.82622,-4.649211)"
   id="polygon3095"
   points="480.183,573.15 448.841,596.217 461.093,633.152 429.471,610.473 398.128,633.539 409.927,596.455 378.304,573.775 417.219,573.537 429.017,536.453 441.269,573.389 " /></svg>